$MeshFormat
2.2 0 8
$EndMeshFormat
$Nodes
483
1 0 0 0
2 0 1 0
3 0.19509032201612825 0.9807852804032304 0
4 0.19134171618254486 0.9807852804032304 0.03806023374435662
5 0.18023995550173696 0.9807852804032304 0.0746578340503426
6 0.16221167441072887 0.9807852804032304 0.1083863756623696
7 0.1379496896414715 0.9807852804032304 0.1379496896414715
8 0.10838637566236961 0.9807852804032304 0.16221167441072887
9 0.07465783405034261 0.9807852804032304 0.18023995550173696
10 0.03806023374435663 0.9807852804032304 0.19134171618254486
11 1.1945836920083893E-17 0.9807852804032304 0.19509032201612825
12 -0.0380602337443566 0.9807852804032304 0.19134171618254486
13 -0.07465783405034258 0.9807852804032304 0.18023995550173696
14 -0.10838637566236956 0.9807852804032304 0.16221167441072887
15 -0.13794968964147147 0.9807852804032304 0.1379496896414715
16 -0.16221167441072887 0.9807852804032304 0.1083863756623696
17 -0.18023995550173696 0.9807852804032304 0.07465783405034263
18 -0.19134171618254486 0.9807852804032304 0.038060233744356686
19 -0.19509032201612825 0.9807852804032304 2.3891673840167787E-17
20 -0.19134171618254486 0.9807852804032304 -0.03806023374435664
21 -0.18023995550173696 0.9807852804032304 -0.07465783405034258
22 -0.1622116744107289 0.9807852804032304 -0.10838637566236956
23 -0.13794968964147153 0.9807852804032304 -0.13794968964147147
24 -0.1083863756623696 0.9807852804032304 -0.16221167441072887
25 -0.07465783405034271 0.9807852804032304 -0.1802399555017369
26 -0.03806023374435669 0.9807852804032304 -0.19134171618254484
27 -3.583751076025168E-17 0.9807852804032304 -0.19509032201612825
28 0.038060233744356624 0.9807852804032304 -0.19134171618254486
29 0.07465783405034264 0.9807852804032304 -0.18023995550173694
30 0.10838637566236953 0.9807852804032304 -0.1622116744107289
31 0.13794968964147145 0.9807852804032304 -0.13794968964147153
32 0.16221167441072887 0.9807852804032304 -0.1083863756623696
33 0.1802399555017369 0.9807852804032304 -0.07465783405034272
34 0.19134171618254484 0.9807852804032304 -0.03806023374435671
35 0.3826834323650898 0.9238795325112867 0
36 0.37533027751786524 0.9238795325112867 0.0746578340503426
37 0.3535533905932738 0.9238795325112867 0.14644660940672624
38 0.31818964514320847 0.9238795325112867 0.2126075236918141
39 0.2705980500730985 0.9238795325112867 0.2705980500730985
40 0.21260752369181415 0.9238795325112867 0.31818964514320847
41 0.14644660940672627 0.9238795325112867 0.3535533905932738
42 0.07465783405034264 0.9238795325112867 0.37533027751786524
43 2.3432602026631493E-17 0.9238795325112867 0.3826834323650898
44 -0.07465783405034258 0.9238795325112867 0.37533027751786524
45 -0.1464466094067262 0.9238795325112867 0.3535533905932738
46 -0.21260752369181402 0.9238795325112867 0.3181896451432085
47 -0.27059805007309845 0.9238795325112867 0.2705980500730985
48 -0.3181896451432085 0.9238795325112867 0.2126075236918141
49 -0.3535533905932738 0.9238795325112867 0.1464466094067263
50 -0.37533027751786524 0.9238795325112867 0.07465783405034274
51 -0.3826834323650898 0.9238795325112867 4.6865204053262986E-17
52 -0.37533027751786524 0.9238795325112867 -0.07465783405034264
53 -0.3535533905932738 0.9238795325112867 -0.1464466094067262
54 -0.3181896451432086 0.9238795325112867 -0.21260752369181402
55 -0.27059805007309856 0.9238795325112867 -0.27059805007309845
56 -0.2126075236918141 0.9238795325112867 -0.31818964514320847
57 -0.14644660940672646 0.9238795325112867 -0.3535533905932737
58 -0.07465783405034276 0.9238795325112867 -0.3753302775178652
59 -7.029780607989448E-17 0.9238795325112867 -0.3826834323650898
60 0.07465783405034263 0.9238795325112867 -0.37533027751786524
61 0.14644660940672632 0.9238795325112867 -0.35355339059327373
62 0.21260752369181396 0.9238795325112867 -0.3181896451432086
63 0.27059805007309845 0.9238795325112867 -0.27059805007309856
64 0.31818964514320847 0.9238795325112867 -0.2126075236918141
65 0.3535533905932737 0.9238795325112867 -0.1464466094067265
66 0.3753302775178652 0.9238795325112867 -0.07465783405034278
67 0.5555702330196022 0.8314696123025452 0
68 0.5448951067758185 0.8314696123025452 0.1083863756623696
69 0.5132799671593367 0.8314696123025452 0.2126075236918141
70 0.4619397662556433 0.8314696123025452 0.3086582838174551
71 0.39284747919355106 0.8314696123025452 0.39284747919355106
72 0.30865828381745514 0.8314696123025452 0.4619397662556433
73 0.21260752369181413 0.8314696123025452 0.5132799671593367
74 0.10838637566236964 0.8314696123025452 0.5448951067758185
75 3.401886537845025E-17 0.8314696123025452 0.5555702330196022
76 -0.10838637566236957 0.8314696123025452 0.5448951067758185
77 -0.21260752369181407 0.8314696123025452 0.5132799671593367
78 -0.3086582838174549 0.8314696123025452 0.4619397662556434
79 -0.392847479193551 0.8314696123025452 0.39284747919355106
80 -0.4619397662556434 0.8314696123025452 0.3086582838174551
81 -0.5132799671593367 0.8314696123025452 0.21260752369181415
82 -0.5448951067758185 0.8314696123025452 0.10838637566236979
83 -0.5555702330196022 0.8314696123025452 6.80377307569005E-17
84 -0.5448951067758185 0.8314696123025452 -0.10838637566236965
85 -0.5132799671593368 0.8314696123025452 -0.21260752369181404
86 -0.4619397662556435 0.8314696123025452 -0.3086582838174549
87 -0.3928474791935511 0.8314696123025452 -0.392847479193551
88 -0.3086582838174551 0.8314696123025452 -0.4619397662556433
89 -0.2126075236918144 0.8314696123025452 -0.5132799671593365
90 -0.10838637566236983 0.8314696123025452 -0.5448951067758185
91 -1.0205659613535074E-16 0.8314696123025452 -0.5555702330196022
92 0.10838637566236962 0.8314696123025452 -0.5448951067758185
93 0.2126075236918142 0.8314696123025452 -0.5132799671593367
94 0.30865828381745486 0.8314696123025452 -0.4619397662556435
95 0.39284747919355095 0.8314696123025452 -0.3928474791935511
96 0.4619397662556433 0.8314696123025452 -0.3086582838174551
97 0.5132799671593365 0.8314696123025452 -0.21260752369181443
98 0.5448951067758185 0.8314696123025452 -0.10838637566236986
99 0.7071067811865476 0.7071067811865476 0
100 0.6935199226610738 0.7071067811865476 0.1379496896414715
101 0.6532814824381883 0.7071067811865476 0.2705980500730985
102 0.5879378012096794 0.7071067811865476 0.39284747919355106
103 0.5000000000000001 0.7071067811865476 0.5000000000000001
104 0.3928474791935512 0.7071067811865476 0.5879378012096794
105 0.27059805007309856 0.7071067811865476 0.6532814824381883
106 0.13794968964147156 0.7071067811865476 0.6935199226610738
107 4.329780281177467E-17 0.7071067811865476 0.7071067811865476
108 -0.13794968964147147 0.7071067811865476 0.6935199226610738
109 -0.2705980500730985 0.7071067811865476 0.6532814824381883
110 -0.39284747919355095 0.7071067811865476 0.5879378012096794
111 -0.5 0.7071067811865476 0.5000000000000001
112 -0.5879378012096794 0.7071067811865476 0.39284747919355106
113 -0.6532814824381883 0.7071067811865476 0.2705980500730986
114 -0.6935199226610738 0.7071067811865476 0.13794968964147175
115 -0.7071067811865476 0.7071067811865476 8.659560562354934E-17
116 -0.6935199226610738 0.7071067811865476 -0.13794968964147158
117 -0.6532814824381884 0.7071067811865476 -0.27059805007309845
118 -0.5879378012096795 0.7071067811865476 -0.39284747919355095
119 -0.5000000000000001 0.7071067811865476 -0.5
120 -0.39284747919355106 0.7071067811865476 -0.5879378012096794
121 -0.2705980500730989 0.7071067811865476 -0.6532814824381882
122 -0.1379496896414718 0.7071067811865476 -0.6935199226610737
123 -1.29893408435324E-16 0.7071067811865476 -0.7071067811865476
124 0.13794968964147153 0.7071067811865476 -0.6935199226610738
125 0.2705980500730987 0.7071067811865476 -0.6532814824381882
126 0.39284747919355084 0.7071067811865476 -0.5879378012096795
127 0.4999999999999999 0.7071067811865476 -0.5000000000000001
128 0.5879378012096794 0.7071067811865476 -0.39284747919355106
129 0.6532814824381882 0.7071067811865476 -0.27059805007309895
130 0.6935199226610737 0.7071067811865476 -0.13794968964147183
131 0.8314696123025452 0.5555702330196023 0
132 0.8154931568489171 0.5555702330196023 0.16221167441072887
133 0.7681777567114163 0.5555702330196023 0.31818964514320847
134 0.6913417161825449 0.5555702330196023 0.4619397662556433
135 0.5879378012096794 0.5555702330196023 0.5879378012096794
136 0.4619397662556434 0.5555702330196023 0.6913417161825449
137 0.3181896451432085 0.5555702330196023 0.7681777567114163
138 0.16221167441072892 0.5555702330196023 0.8154931568489171
139 5.091282996473014E-17 0.5555702330196023 0.8314696123025452
140 -0.1622116744107288 0.5555702330196023 0.8154931568489171
141 -0.31818964514320847 0.5555702330196023 0.7681777567114163
142 -0.46193976625564315 0.5555702330196023 0.691341716182545
143 -0.5879378012096793 0.5555702330196023 0.5879378012096794
144 -0.691341716182545 0.5555702330196023 0.4619397662556433
145 -0.7681777567114163 0.5555702330196023 0.3181896451432086
146 -0.8154931568489171 0.5555702330196023 0.16221167441072917
147 -0.8314696123025452 0.5555702330196023 1.0182565992946028E-16
148 -0.8154931568489171 0.5555702330196023 -0.16221167441072895
149 -0.7681777567114164 0.5555702330196023 -0.3181896451432084
150 -0.691341716182545 0.5555702330196023 -0.46193976625564315
151 -0.5879378012096795 0.5555702330196023 -0.5879378012096793
152 -0.4619397662556433 0.5555702330196023 -0.6913417161825449
153 -0.31818964514320897 0.5555702330196023 -0.7681777567114161
154 -0.1622116744107292 0.5555702330196023 -0.815493156848917
155 -1.527384898941904E-16 0.5555702330196023 -0.8314696123025452
156 0.1622116744107289 0.5555702330196023 -0.8154931568489171
157 0.3181896451432087 0.5555702330196023 -0.7681777567114162
158 0.46193976625564304 0.5555702330196023 -0.691341716182545
159 0.5879378012096792 0.5555702330196023 -0.5879378012096795
160 0.6913417161825449 0.5555702330196023 -0.4619397662556433
161 0.7681777567114161 0.5555702330196023 -0.318189645143209
162 0.815493156848917 0.5555702330196023 -0.16221167441072926
163 0.9238795325112867 0.38268343236508984 0
164 0.9061274463528878 0.38268343236508984 0.18023995550173696
165 0.8535533905932737 0.38268343236508984 0.3535533905932738
166 0.7681777567114163 0.38268343236508984 0.5132799671593367
167 0.6532814824381883 0.38268343236508984 0.6532814824381883
168 0.5132799671593368 0.38268343236508984 0.7681777567114163
169 0.35355339059327384 0.38268343236508984 0.8535533905932737
170 0.18023995550173702 0.38268343236508984 0.9061274463528878
171 5.657130561438501E-17 0.38268343236508984 0.9238795325112867
172 -0.1802399555017369 0.38268343236508984 0.9061274463528878
173 -0.35355339059327373 0.38268343236508984 0.8535533905932737
174 -0.5132799671593365 0.38268343236508984 0.7681777567114164
175 -0.6532814824381882 0.38268343236508984 0.6532814824381883
176 -0.7681777567114164 0.38268343236508984 0.5132799671593367
177 -0.8535533905932737 0.38268343236508984 0.35355339059327384
178 -0.9061274463528878 0.38268343236508984 0.1802399555017373
179 -0.9238795325112867 0.38268343236508984 1.1314261122877003E-16
180 -0.9061274463528878 0.38268343236508984 -0.18023995550173705
181 -0.8535533905932738 0.38268343236508984 -0.3535533905932737
182 -0.7681777567114165 0.38268343236508984 -0.5132799671593365
183 -0.6532814824381884 0.38268343236508984 -0.6532814824381882
184 -0.5132799671593367 0.38268343236508984 -0.7681777567114163
185 -0.3535533905932743 0.38268343236508984 -0.8535533905932735
186 -0.18023995550173735 0.38268343236508984 -0.9061274463528877
187 -1.6971391684315505E-16 0.38268343236508984 -0.9238795325112867
188 0.18023995550173702 0.38268343236508984 -0.9061274463528878
189 0.35355339059327395 0.38268343236508984 -0.8535533905932736
190 0.5132799671593364 0.38268343236508984 -0.7681777567114165
191 0.6532814824381881 0.38268343236508984 -0.6532814824381884
192 0.7681777567114163 0.38268343236508984 -0.5132799671593367
193 0.8535533905932735 0.38268343236508984 -0.35355339059327434
194 0.9061274463528877 0.38268343236508984 -0.18023995550173738
195 0.9807852804032304 0.19509032201612833 0
196 0.9619397662556434 0.19509032201612833 0.19134171618254486
197 0.9061274463528878 0.19509032201612833 0.37533027751786524
198 0.8154931568489171 0.19509032201612833 0.5448951067758185
199 0.6935199226610738 0.19509032201612833 0.6935199226610738
200 0.5448951067758186 0.19509032201612833 0.8154931568489171
201 0.3753302775178653 0.19509032201612833 0.9061274463528878
202 0.19134171618254495 0.19509032201612833 0.9619397662556434
203 6.005577771483278E-17 0.19509032201612833 0.9807852804032304
204 -0.1913417161825448 0.19509032201612833 0.9619397662556434
205 -0.3753302775178652 0.19509032201612833 0.9061274463528878
206 -0.5448951067758184 0.19509032201612833 0.8154931568489172
207 -0.6935199226610737 0.19509032201612833 0.6935199226610738
208 -0.8154931568489172 0.19509032201612833 0.5448951067758185
209 -0.9061274463528878 0.19509032201612833 0.37533027751786535
210 -0.9619397662556434 0.19509032201612833 0.19134171618254522
211 -0.9807852804032304 0.19509032201612833 1.2011155542966555E-16
212 -0.9619397662556434 0.19509032201612833 -0.19134171618254497
213 -0.9061274463528879 0.19509032201612833 -0.37533027751786513
214 -0.8154931568489173 0.19509032201612833 -0.5448951067758184
215 -0.6935199226610739 0.19509032201612833 -0.6935199226610737
216 -0.5448951067758185 0.19509032201612833 -0.8154931568489171
217 -0.3753302775178658 0.19509032201612833 -0.9061274463528876
218 -0.19134171618254528 0.19509032201612833 -0.9619397662556433
219 -1.8016733314449831E-16 0.19509032201612833 -0.9807852804032304
220 0.19134171618254492 0.19509032201612833 -0.9619397662556434
221 0.37533027751786546 0.19509032201612833 -0.9061274463528877
222 0.5448951067758183 0.19509032201612833 -0.8154931568489173
223 0.6935199226610735 0.19509032201612833 -0.6935199226610739
224 0.8154931568489171 0.19509032201612833 -0.5448951067758185
225 0.9061274463528876 0.19509032201612833 -0.37533027751786585
226 0.9619397662556433 0.19509032201612833 -0.19134171618254533
227 1 6.123233995736766E-17 0
228 0.9807852804032304 6.123233995736766E-17 0.19509032201612825
229 0.9238795325112867 6.123233995736766E-17 0.3826834323650898
230 0.8314696123025452 6.123233995736766E-17 0.5555702330196022
231 0.7071067811865476 6.123233995736766E-17 0.7071067811865476
232 0.5555702330196023 6.123233995736766E-17 0.8314696123025452
233 0.38268343236508984 6.123233995736766E-17 0.9238795325112867
234 0.19509032201612833 6.123233995736766E-17 0.9807852804032304
235 6.123233995736766E-17 6.123233995736766E-17 1
236 -0.1950903220161282 6.123233995736766E-17 0.9807852804032304
237 -0.3826834323650897 6.123233995736766E-17 0.9238795325112867
238 -0.555570233019602 6.123233995736766E-17 0.8314696123025453
239 -0.7071067811865475 6.123233995736766E-17 0.7071067811865476
240 -0.8314696123025453 6.123233995736766E-17 0.5555702330196022
241 -0.9238795325112867 6.123233995736766E-17 0.3826834323650899
242 -0.9807852804032304 6.123233995736766E-17 0.1950903220161286
243 -1 6.123233995736766E-17 1.2246467991473532E-16
244 -0.9807852804032304 6.123233995736766E-17 -0.19509032201612836
245 -0.9238795325112868 6.123233995736766E-17 -0.38268343236508967
246 -0.8314696123025455 6.123233995736766E-17 -0.555570233019602
247 -0.7071067811865477 6.123233995736766E-17 -0.7071067811865475
248 -0.5555702330196022 6.123233995736766E-17 -0.8314696123025452
249 -0.38268343236509034 6.123233995736766E-17 -0.9238795325112865
250 -0.19509032201612866 6.123233995736766E-17 -0.9807852804032303
251 -1.8369701987210297E-16 6.123233995736766E-17 -1
252 0.1950903220161283 6.123233995736766E-17 -0.9807852804032304
253 0.38268343236509 6.123233995736766E-17 -0.9238795325112866
254 0.5555702330196018 6.123233995736766E-17 -0.8314696123025455
255 0.7071067811865474 6.123233995736766E-17 -0.7071067811865477
256 0.8314696123025452 6.123233995736766E-17 -0.5555702330196022
257 0.9238795325112865 6.123233995736766E-17 -0.3826834323650904
258 0.9807852804032303 6.123233995736766E-17 -0.19509032201612872
259 0.9807852804032304 -0.1950903220161282 0
260 0.9619397662556434 -0.1950903220161282 0.19134171618254486
261 0.9061274463528878 -0.1950903220161282 0.37533027751786524
262 0.8154931568489171 -0.1950903220161282 0.5448951067758185
263 0.6935199226610738 -0.1950903220161282 0.6935199226610738
264 0.5448951067758186 -0.1950903220161282 0.8154931568489171
265 0.3753302775178653 -0.1950903220161282 0.9061274463528878
266 0.19134171618254495 -0.1950903220161282 0.9619397662556434
267 6.005577771483278E-17 -0.1950903220161282 0.9807852804032304
268 -0.1913417161825448 -0.1950903220161282 0.9619397662556434
269 -0.3753302775178652 -0.1950903220161282 0.9061274463528878
270 -0.5448951067758184 -0.1950903220161282 0.8154931568489172
271 -0.6935199226610737 -0.1950903220161282 0.6935199226610738
272 -0.8154931568489172 -0.1950903220161282 0.5448951067758185
273 -0.9061274463528878 -0.1950903220161282 0.37533027751786535
274 -0.9619397662556434 -0.1950903220161282 0.19134171618254522
275 -0.9807852804032304 -0.1950903220161282 1.2011155542966555E-16
276 -0.9619397662556434 -0.1950903220161282 -0.19134171618254497
277 -0.9061274463528879 -0.1950903220161282 -0.37533027751786513
278 -0.8154931568489173 -0.1950903220161282 -0.5448951067758184
279 -0.6935199226610739 -0.1950903220161282 -0.6935199226610737
280 -0.5448951067758185 -0.1950903220161282 -0.8154931568489171
281 -0.3753302775178658 -0.1950903220161282 -0.9061274463528876
282 -0.19134171618254528 -0.1950903220161282 -0.9619397662556433
283 -1.8016733314449831E-16 -0.1950903220161282 -0.9807852804032304
284 0.19134171618254492 -0.1950903220161282 -0.9619397662556434
285 0.37533027751786546 -0.1950903220161282 -0.9061274463528877
286 0.5448951067758183 -0.1950903220161282 -0.8154931568489173
287 0.6935199226610735 -0.1950903220161282 -0.6935199226610739
288 0.8154931568489171 -0.1950903220161282 -0.5448951067758185
289 0.9061274463528876 -0.1950903220161282 -0.37533027751786585
290 0.9619397662556433 -0.1950903220161282 -0.19134171618254533
291 0.9238795325112867 -0.3826834323650897 0
292 0.9061274463528878 -0.3826834323650897 0.18023995550173696
293 0.8535533905932737 -0.3826834323650897 0.3535533905932738
294 0.7681777567114163 -0.3826834323650897 0.5132799671593367
295 0.6532814824381883 -0.3826834323650897 0.6532814824381883
296 0.5132799671593368 -0.3826834323650897 0.7681777567114163
297 0.35355339059327384 -0.3826834323650897 0.8535533905932737
298 0.18023995550173702 -0.3826834323650897 0.9061274463528878
299 5.657130561438501E-17 -0.3826834323650897 0.9238795325112867
300 -0.1802399555017369 -0.3826834323650897 0.9061274463528878
301 -0.35355339059327373 -0.3826834323650897 0.8535533905932737
302 -0.5132799671593365 -0.3826834323650897 0.7681777567114164
303 -0.6532814824381882 -0.3826834323650897 0.6532814824381883
304 -0.7681777567114164 -0.3826834323650897 0.5132799671593367
305 -0.8535533905932737 -0.3826834323650897 0.35355339059327384
306 -0.9061274463528878 -0.3826834323650897 0.1802399555017373
307 -0.9238795325112867 -0.3826834323650897 1.1314261122877003E-16
308 -0.9061274463528878 -0.3826834323650897 -0.18023995550173705
309 -0.8535533905932738 -0.3826834323650897 -0.3535533905932737
310 -0.7681777567114165 -0.3826834323650897 -0.5132799671593365
311 -0.6532814824381884 -0.3826834323650897 -0.6532814824381882
312 -0.5132799671593367 -0.3826834323650897 -0.7681777567114163
313 -0.3535533905932743 -0.3826834323650897 -0.8535533905932735
314 -0.18023995550173735 -0.3826834323650897 -0.9061274463528877
315 -1.6971391684315505E-16 -0.3826834323650897 -0.9238795325112867
316 0.18023995550173702 -0.3826834323650897 -0.9061274463528878
317 0.35355339059327395 -0.3826834323650897 -0.8535533905932736
318 0.5132799671593364 -0.3826834323650897 -0.7681777567114165
319 0.6532814824381881 -0.3826834323650897 -0.6532814824381884
320 0.7681777567114163 -0.3826834323650897 -0.5132799671593367
321 0.8535533905932735 -0.3826834323650897 -0.35355339059327434
322 0.9061274463528877 -0.3826834323650897 -0.18023995550173738
323 0.8314696123025453 -0.555570233019602 0
324 0.8154931568489172 -0.555570233019602 0.16221167441072887
325 0.7681777567114164 -0.555570233019602 0.3181896451432085
326 0.691341716182545 -0.555570233019602 0.4619397662556434
327 0.5879378012096794 -0.555570233019602 0.5879378012096794
328 0.4619397662556435 -0.555570233019602 0.691341716182545
329 0.3181896451432086 -0.555570233019602 0.7681777567114164
330 0.16221167441072895 -0.555570233019602 0.8154931568489172
331 5.0912829964730146E-17 -0.555570233019602 0.8314696123025453
332 -0.16221167441072884 -0.555570233019602 0.8154931568489172
333 -0.31818964514320847 -0.555570233019602 0.7681777567114164
334 -0.4619397662556432 -0.555570233019602 0.691341716182545
335 -0.5879378012096794 -0.555570233019602 0.5879378012096794
336 -0.691341716182545 -0.555570233019602 0.4619397662556434
337 -0.7681777567114164 -0.555570233019602 0.31818964514320863
338 -0.8154931568489172 -0.555570233019602 0.16221167441072917
339 -0.8314696123025453 -0.555570233019602 1.0182565992946029E-16
340 -0.8154931568489172 -0.555570233019602 -0.16221167441072898
341 -0.7681777567114165 -0.555570233019602 -0.31818964514320847
342 -0.6913417161825451 -0.555570233019602 -0.4619397662556432
343 -0.5879378012096795 -0.555570233019602 -0.5879378012096794
344 -0.4619397662556434 -0.555570233019602 -0.691341716182545
345 -0.318189645143209 -0.555570233019602 -0.7681777567114162
346 -0.16221167441072923 -0.555570233019602 -0.8154931568489171
347 -1.5273848989419043E-16 -0.555570233019602 -0.8314696123025453
348 0.16221167441072892 -0.555570233019602 -0.8154931568489172
349 0.31818964514320874 -0.555570233019602 -0.7681777567114163
350 0.46193976625564315 -0.555570233019602 -0.6913417161825451
351 0.5879378012096793 -0.555570233019602 -0.5879378012096795
352 0.691341716182545 -0.555570233019602 -0.4619397662556434
353 0.7681777567114162 -0.555570233019602 -0.318189645143209
354 0.8154931568489171 -0.555570233019602 -0.16221167441072928
355 0.7071067811865476 -0.7071067811865475 0
356 0.6935199226610738 -0.7071067811865475 0.1379496896414715
357 0.6532814824381883 -0.7071067811865475 0.2705980500730985
358 0.5879378012096794 -0.7071067811865475 0.39284747919355106
359 0.5000000000000001 -0.7071067811865475 0.5000000000000001
360 0.3928474791935512 -0.7071067811865475 0.5879378012096794
361 0.27059805007309856 -0.7071067811865475 0.6532814824381883
362 0.13794968964147156 -0.7071067811865475 0.6935199226610738
363 4.329780281177467E-17 -0.7071067811865475 0.7071067811865476
364 -0.13794968964147147 -0.7071067811865475 0.6935199226610738
365 -0.2705980500730985 -0.7071067811865475 0.6532814824381883
366 -0.39284747919355095 -0.7071067811865475 0.5879378012096794
367 -0.5 -0.7071067811865475 0.5000000000000001
368 -0.5879378012096794 -0.7071067811865475 0.39284747919355106
369 -0.6532814824381883 -0.7071067811865475 0.2705980500730986
370 -0.6935199226610738 -0.7071067811865475 0.13794968964147175
371 -0.7071067811865476 -0.7071067811865475 8.659560562354934E-17
372 -0.6935199226610738 -0.7071067811865475 -0.13794968964147158
373 -0.6532814824381884 -0.7071067811865475 -0.27059805007309845
374 -0.5879378012096795 -0.7071067811865475 -0.39284747919355095
375 -0.5000000000000001 -0.7071067811865475 -0.5
376 -0.39284747919355106 -0.7071067811865475 -0.5879378012096794
377 -0.2705980500730989 -0.7071067811865475 -0.6532814824381882
378 -0.1379496896414718 -0.7071067811865475 -0.6935199226610737
379 -1.29893408435324E-16 -0.7071067811865475 -0.7071067811865476
380 0.13794968964147153 -0.7071067811865475 -0.6935199226610738
381 0.2705980500730987 -0.7071067811865475 -0.6532814824381882
382 0.39284747919355084 -0.7071067811865475 -0.5879378012096795
383 0.4999999999999999 -0.7071067811865475 -0.5000000000000001
384 0.5879378012096794 -0.7071067811865475 -0.39284747919355106
385 0.6532814824381882 -0.7071067811865475 -0.27059805007309895
386 0.6935199226610737 -0.7071067811865475 -0.13794968964147183
387 0.5555702330196022 -0.8314696123025453 0
388 0.5448951067758185 -0.8314696123025453 0.1083863756623696
389 0.5132799671593367 -0.8314696123025453 0.2126075236918141
390 0.4619397662556433 -0.8314696123025453 0.3086582838174551
391 0.39284747919355106 -0.8314696123025453 0.39284747919355106
392 0.30865828381745514 -0.8314696123025453 0.4619397662556433
393 0.21260752369181413 -0.8314696123025453 0.5132799671593367
394 0.10838637566236964 -0.8314696123025453 0.5448951067758185
395 3.401886537845025E-17 -0.8314696123025453 0.5555702330196022
396 -0.10838637566236957 -0.8314696123025453 0.5448951067758185
397 -0.21260752369181407 -0.8314696123025453 0.5132799671593367
398 -0.3086582838174549 -0.8314696123025453 0.4619397662556434
399 -0.392847479193551 -0.8314696123025453 0.39284747919355106
400 -0.4619397662556434 -0.8314696123025453 0.3086582838174551
401 -0.5132799671593367 -0.8314696123025453 0.21260752369181415
402 -0.5448951067758185 -0.8314696123025453 0.10838637566236979
403 -0.5555702330196022 -0.8314696123025453 6.80377307569005E-17
404 -0.5448951067758185 -0.8314696123025453 -0.10838637566236965
405 -0.5132799671593368 -0.8314696123025453 -0.21260752369181404
406 -0.4619397662556435 -0.8314696123025453 -0.3086582838174549
407 -0.3928474791935511 -0.8314696123025453 -0.392847479193551
408 -0.3086582838174551 -0.8314696123025453 -0.4619397662556433
409 -0.2126075236918144 -0.8314696123025453 -0.5132799671593365
410 -0.10838637566236983 -0.8314696123025453 -0.5448951067758185
411 -1.0205659613535074E-16 -0.8314696123025453 -0.5555702330196022
412 0.10838637566236962 -0.8314696123025453 -0.5448951067758185
413 0.2126075236918142 -0.8314696123025453 -0.5132799671593367
414 0.30865828381745486 -0.8314696123025453 -0.4619397662556435
415 0.39284747919355095 -0.8314696123025453 -0.3928474791935511
416 0.4619397662556433 -0.8314696123025453 -0.3086582838174551
417 0.5132799671593365 -0.8314696123025453 -0.21260752369181443
418 0.5448951067758185 -0.8314696123025453 -0.10838637566236986
419 0.3826834323650899 -0.9238795325112867 0
420 0.37533027751786535 -0.9238795325112867 0.07465783405034263
421 0.35355339059327384 -0.9238795325112867 0.1464466094067263
422 0.3181896451432086 -0.9238795325112867 0.21260752369181415
423 0.2705980500730986 -0.9238795325112867 0.2705980500730986
424 0.2126075236918142 -0.9238795325112867 0.3181896451432086
425 0.1464466094067263 -0.9238795325112867 0.35355339059327384
426 0.07465783405034265 -0.9238795325112867 0.37533027751786535
427 2.34326020266315E-17 -0.9238795325112867 0.3826834323650899
428 -0.0746578340503426 -0.9238795325112867 0.37533027751786535
429 -0.14644660940672627 -0.9238795325112867 0.35355339059327384
430 -0.21260752369181407 -0.9238795325112867 0.31818964514320863
431 -0.27059805007309856 -0.9238795325112867 0.2705980500730986
432 -0.31818964514320863 -0.9238795325112867 0.21260752369181415
433 -0.35355339059327384 -0.9238795325112867 0.14644660940672632
434 -0.37533027751786535 -0.9238795325112867 0.07465783405034276
435 -0.3826834323650899 -0.9238795325112867 4.6865204053263E-17
436 -0.37533027751786535 -0.9238795325112867 -0.07465783405034267
437 -0.3535533905932739 -0.9238795325112867 -0.14644660940672624
438 -0.3181896451432087 -0.9238795325112867 -0.21260752369181407
439 -0.2705980500730986 -0.9238795325112867 -0.27059805007309856
440 -0.21260752369181415 -0.9238795325112867 -0.3181896451432086
441 -0.1464466094067265 -0.9238795325112867 -0.3535533905932738
442 -0.07465783405034278 -0.9238795325112867 -0.3753302775178653
443 -7.029780607989449E-17 -0.9238795325112867 -0.3826834323650899
444 0.07465783405034264 -0.9238795325112867 -0.37533027751786535
445 0.14644660940672638 -0.9238795325112867 -0.35355339059327384
446 0.21260752369181404 -0.9238795325112867 -0.3181896451432087
447 0.2705980500730985 -0.9238795325112867 -0.2705980500730986
448 0.3181896451432086 -0.9238795325112867 -0.21260752369181415
449 0.3535533905932738 -0.9238795325112867 -0.14644660940672652
450 0.3753302775178653 -0.9238795325112867 -0.0746578340503428
451 0.1950903220161286 -0.9807852804032304 0
452 0.19134171618254522 -0.9807852804032304 0.038060233744356686
453 0.1802399555017373 -0.9807852804032304 0.07465783405034274
454 0.16221167441072917 -0.9807852804032304 0.10838637566236979
455 0.13794968964147175 -0.9807852804032304 0.13794968964147175
456 0.10838637566236982 -0.9807852804032304 0.16221167441072917
457 0.07465783405034275 -0.9807852804032304 0.1802399555017373
458 0.0380602337443567 -0.9807852804032304 0.19134171618254522
459 1.1945836920083915E-17 -0.9807852804032304 0.1950903220161286
460 -0.03806023374435667 -0.9807852804032304 0.19134171618254522
461 -0.07465783405034272 -0.9807852804032304 0.1802399555017373
462 -0.10838637566236975 -0.9807852804032304 0.16221167441072917
463 -0.13794968964147172 -0.9807852804032304 0.13794968964147175
464 -0.16221167441072917 -0.9807852804032304 0.10838637566236979
465 -0.1802399555017373 -0.9807852804032304 0.07465783405034276
466 -0.19134171618254522 -0.9807852804032304 0.038060233744356756
467 -0.1950903220161286 -0.9807852804032304 2.389167384016783E-17
468 -0.19134171618254522 -0.9807852804032304 -0.03806023374435671
469 -0.18023995550173733 -0.9807852804032304 -0.07465783405034272
470 -0.1622116744107292 -0.9807852804032304 -0.10838637566236975
471 -0.13794968964147178 -0.9807852804032304 -0.13794968964147172
472 -0.10838637566236979 -0.9807852804032304 -0.16221167441072917
473 -0.07465783405034285 -0.9807852804032304 -0.18023995550173724
474 -0.03806023374435676 -0.9807852804032304 -0.1913417161825452
475 -3.583751076025174E-17 -0.9807852804032304 -0.1950903220161286
476 0.03806023374435669 -0.9807852804032304 -0.19134171618254522
477 0.07465783405034278 -0.9807852804032304 -0.18023995550173727
478 0.10838637566236974 -0.9807852804032304 -0.1622116744107292
479 0.13794968964147172 -0.9807852804032304 -0.13794968964147178
480 0.16221167441072917 -0.9807852804032304 -0.10838637566236979
481 0.18023995550173724 -0.9807852804032304 -0.07465783405034286
482 0.1913417161825452 -0.9807852804032304 -0.038060233744356776
483 0 -1 0
$EndNodes
$Elements
960
1 4 0 1 2 4 3
2 4 0 1 2 5 4
3 4 0 1 2 6 5
4 4 0 1 2 7 6
5 4 0 1 2 8 7
6 4 0 1 2 9 8
7 4 0 1 2 10 9
8 4 0 1 2 11 10
9 4 0 1 2 12 11
10 4 0 1 2 13 12
11 4 0 1 2 14 13
12 4 0 1 2 15 14
13 4 0 1 2 16 15
14 4 0 1 2 17 16
15 4 0 1 2 18 17
16 4 0 1 2 19 18
17 4 0 1 2 20 19
18 4 0 1 2 21 20
19 4 0 1 2 22 21
20 4 0 1 2 23 22
21 4 0 1 2 24 23
22 4 0 1 2 25 24
23 4 0 1 2 26 25
24 4 0 1 2 27 26
25 4 0 1 2 28 27
26 4 0 1 2 29 28
27 4 0 1 2 30 29
28 4 0 1 2 31 30
29 4 0 1 2 32 31
30 4 0 1 2 33 32
31 4 0 1 2 34 33
32 4 0 1 2 3 34
33 4 0 1 3 4 35
34 4 0 1 4 36 35
35 4 0 1 4 5 36
36 4 0 1 5 37 36
37 4 0 1 5 6 37
38 4 0 1 6 38 37
39 4 0 1 6 7 38
40 4 0 1 7 39 38
41 4 0 1 7 8 39
42 4 0 1 8 40 39
43 4 0 1 8 9 40
44 4 0 1 9 41 40
45 4 0 1 9 10 41
46 4 0 1 10 42 41
47 4 0 1 10 11 42
48 4 0 1 11 43 42
49 4 0 1 11 12 43
50 4 0 1 12 44 43
51 4 0 1 12 13 44
52 4 0 1 13 45 44
53 4 0 1 13 14 45
54 4 0 1 14 46 45
55 4 0 1 14 15 46
56 4 0 1 15 47 46
57 4 0 1 15 16 47
58 4 0 1 16 48 47
59 4 0 1 16 17 48
60 4 0 1 17 49 48
61 4 0 1 17 18 49
62 4 0 1 18 50 49
63 4 0 1 18 19 50
64 4 0 1 19 51 50
65 4 0 1 19 20 51
66 4 0 1 20 52 51
67 4 0 1 20 21 52
68 4 0 1 21 53 52
69 4 0 1 21 22 53
70 4 0 1 22 54 53
71 4 0 1 22 23 54
72 4 0 1 23 55 54
73 4 0 1 23 24 55
74 4 0 1 24 56 55
75 4 0 1 24 25 56
76 4 0 1 25 57 56
77 4 0 1 25 26 57
78 4 0 1 26 58 57
79 4 0 1 26 27 58
80 4 0 1 27 59 58
81 4 0 1 27 28 59
82 4 0 1 28 60 59
83 4 0 1 28 29 60
84 4 0 1 29 61 60
85 4 0 1 29 30 61
86 4 0 1 30 62 61
87 4 0 1 30 31 62
88 4 0 1 31 63 62
89 4 0 1 31 32 63
90 4 0 1 32 64 63
91 4 0 1 32 33 64
92 4 0 1 33 65 64
93 4 0 1 33 34 65
94 4 0 1 34 66 65
95 4 0 1 34 3 66
96 4 0 1 3 35 66
97 4 0 1 35 36 67
98 4 0 1 36 68 67
99 4 0 1 36 37 68
100 4 0 1 37 69 68
101 4 0 1 37 38 69
102 4 0 1 38 70 69
103 4 0 1 38 39 70
104 4 0 1 39 71 70
105 4 0 1 39 40 71
106 4 0 1 40 72 71
107 4 0 1 40 41 72
108 4 0 1 41 73 72
109 4 0 1 41 42 73
110 4 0 1 42 74 73
111 4 0 1 42 43 74
112 4 0 1 43 75 74
113 4 0 1 43 44 75
114 4 0 1 44 76 75
115 4 0 1 44 45 76
116 4 0 1 45 77 76
117 4 0 1 45 46 77
118 4 0 1 46 78 77
119 4 0 1 46 47 78
120 4 0 1 47 79 78
121 4 0 1 47 48 79
122 4 0 1 48 80 79
123 4 0 1 48 49 80
124 4 0 1 49 81 80
125 4 0 1 49 50 81
126 4 0 1 50 82 81
127 4 0 1 50 51 82
128 4 0 1 51 83 82
129 4 0 1 51 52 83
130 4 0 1 52 84 83
131 4 0 1 52 53 84
132 4 0 1 53 85 84
133 4 0 1 53 54 85
134 4 0 1 54 86 85
135 4 0 1 54 55 86
136 4 0 1 55 87 86
137 4 0 1 55 56 87
138 4 0 1 56 88 87
139 4 0 1 56 57 88
140 4 0 1 57 89 88
141 4 0 1 57 58 89
142 4 0 1 58 90 89
143 4 0 1 58 59 90
144 4 0 1 59 91 90
145 4 0 1 59 60 91
146 4 0 1 60 92 91
147 4 0 1 60 61 92
148 4 0 1 61 93 92
149 4 0 1 61 62 93
150 4 0 1 62 94 93
151 4 0 1 62 63 94
152 4 0 1 63 95 94
153 4 0 1 63 64 95
154 4 0 1 64 96 95
155 4 0 1 64 65 96
156 4 0 1 65 97 96
157 4 0 1 65 66 97
158 4 0 1 66 98 97
159 4 0 1 66 35 98
160 4 0 1 35 67 98
161 4 0 1 67 68 99
162 4 0 1 68 100 99
163 4 0 1 68 69 100
164 4 0 1 69 101 100
165 4 0 1 69 70 101
166 4 0 1 70 102 101
167 4 0 1 70 71 102
168 4 0 1 71 103 102
169 4 0 1 71 72 103
170 4 0 1 72 104 103
171 4 0 1 72 73 104
172 4 0 1 73 105 104
173 4 0 1 73 74 105
174 4 0 1 74 106 105
175 4 0 1 74 75 106
176 4 0 1 75 107 106
177 4 0 1 75 76 107
178 4 0 1 76 108 107
179 4 0 1 76 77 108
180 4 0 1 77 109 108
181 4 0 1 77 78 109
182 4 0 1 78 110 109
183 4 0 1 78 79 110
184 4 0 1 79 111 110
185 4 0 1 79 80 111
186 4 0 1 80 112 111
187 4 0 1 80 81 112
188 4 0 1 81 113 112
189 4 0 1 81 82 113
190 4 0 1 82 114 113
191 4 0 1 82 83 114
192 4 0 1 83 115 114
193 4 0 1 83 84 115
194 4 0 1 84 116 115
195 4 0 1 84 85 116
196 4 0 1 85 117 116
197 4 0 1 85 86 117
198 4 0 1 86 118 117
199 4 0 1 86 87 118
200 4 0 1 87 119 118
201 4 0 1 87 88 119
202 4 0 1 88 120 119
203 4 0 1 88 89 120
204 4 0 1 89 121 120
205 4 0 1 89 90 121
206 4 0 1 90 122 121
207 4 0 1 90 91 122
208 4 0 1 91 123 122
209 4 0 1 91 92 123
210 4 0 1 92 124 123
211 4 0 1 92 93 124
212 4 0 1 93 125 124
213 4 0 1 93 94 125
214 4 0 1 94 126 125
215 4 0 1 94 95 126
216 4 0 1 95 127 126
217 4 0 1 95 96 127
218 4 0 1 96 128 127
219 4 0 1 96 97 128
220 4 0 1 97 129 128
221 4 0 1 97 98 129
222 4 0 1 98 130 129
223 4 0 1 98 67 130
224 4 0 1 67 99 130
225 4 0 1 99 100 131
226 4 0 1 100 132 131
227 4 0 1 100 101 132
228 4 0 1 101 133 132
229 4 0 1 101 102 133
230 4 0 1 102 134 133
231 4 0 1 102 103 134
232 4 0 1 103 135 134
233 4 0 1 103 104 135
234 4 0 1 104 136 135
235 4 0 1 104 105 136
236 4 0 1 105 137 136
237 4 0 1 105 106 137
238 4 0 1 106 138 137
239 4 0 1 106 107 138
240 4 0 1 107 139 138
241 4 0 1 107 108 139
242 4 0 1 108 140 139
243 4 0 1 108 109 140
244 4 0 1 109 141 140
245 4 0 1 109 110 141
246 4 0 1 110 142 141
247 4 0 1 110 111 142
248 4 0 1 111 143 142
249 4 0 1 111 112 143
250 4 0 1 112 144 143
251 4 0 1 112 113 144
252 4 0 1 113 145 144
253 4 0 1 113 114 145
254 4 0 1 114 146 145
255 4 0 1 114 115 146
256 4 0 1 115 147 146
257 4 0 1 115 116 147
258 4 0 1 116 148 147
259 4 0 1 116 117 148
260 4 0 1 117 149 148
261 4 0 1 117 118 149
262 4 0 1 118 150 149
263 4 0 1 118 119 150
264 4 0 1 119 151 150
265 4 0 1 119 120 151
266 4 0 1 120 152 151
267 4 0 1 120 121 152
268 4 0 1 121 153 152
269 4 0 1 121 122 153
270 4 0 1 122 154 153
271 4 0 1 122 123 154
272 4 0 1 123 155 154
273 4 0 1 123 124 155
274 4 0 1 124 156 155
275 4 0 1 124 125 156
276 4 0 1 125 157 156
277 4 0 1 125 126 157
278 4 0 1 126 158 157
279 4 0 1 126 127 158
280 4 0 1 127 159 158
281 4 0 1 127 128 159
282 4 0 1 128 160 159
283 4 0 1 128 129 160
284 4 0 1 129 161 160
285 4 0 1 129 130 161
286 4 0 1 130 162 161
287 4 0 1 130 99 162
288 4 0 1 99 131 162
289 4 0 1 131 132 163
290 4 0 1 132 164 163
291 4 0 1 132 133 164
292 4 0 1 133 165 164
293 4 0 1 133 134 165
294 4 0 1 134 166 165
295 4 0 1 134 135 166
296 4 0 1 135 167 166
297 4 0 1 135 136 167
298 4 0 1 136 168 167
299 4 0 1 136 137 168
300 4 0 1 137 169 168
301 4 0 1 137 138 169
302 4 0 1 138 170 169
303 4 0 1 138 139 170
304 4 0 1 139 171 170
305 4 0 1 139 140 171
306 4 0 1 140 172 171
307 4 0 1 140 141 172
308 4 0 1 141 173 172
309 4 0 1 141 142 173
310 4 0 1 142 174 173
311 4 0 1 142 143 174
312 4 0 1 143 175 174
313 4 0 1 143 144 175
314 4 0 1 144 176 175
315 4 0 1 144 145 176
316 4 0 1 145 177 176
317 4 0 1 145 146 177
318 4 0 1 146 178 177
319 4 0 1 146 147 178
320 4 0 1 147 179 178
321 4 0 1 147 148 179
322 4 0 1 148 180 179
323 4 0 1 148 149 180
324 4 0 1 149 181 180
325 4 0 1 149 150 181
326 4 0 1 150 182 181
327 4 0 1 150 151 182
328 4 0 1 151 183 182
329 4 0 1 151 152 183
330 4 0 1 152 184 183
331 4 0 1 152 153 184
332 4 0 1 153 185 184
333 4 0 1 153 154 185
334 4 0 1 154 186 185
335 4 0 1 154 155 186
336 4 0 1 155 187 186
337 4 0 1 155 156 187
338 4 0 1 156 188 187
339 4 0 1 156 157 188
340 4 0 1 157 189 188
341 4 0 1 157 158 189
342 4 0 1 158 190 189
343 4 0 1 158 159 190
344 4 0 1 159 191 190
345 4 0 1 159 160 191
346 4 0 1 160 192 191
347 4 0 1 160 161 192
348 4 0 1 161 193 192
349 4 0 1 161 162 193
350 4 0 1 162 194 193
351 4 0 1 162 131 194
352 4 0 1 131 163 194
353 4 0 1 163 164 195
354 4 0 1 164 196 195
355 4 0 1 164 165 196
356 4 0 1 165 197 196
357 4 0 1 165 166 197
358 4 0 1 166 198 197
359 4 0 1 166 167 198
360 4 0 1 167 199 198
361 4 0 1 167 168 199
362 4 0 1 168 200 199
363 4 0 1 168 169 200
364 4 0 1 169 201 200
365 4 0 1 169 170 201
366 4 0 1 170 202 201
367 4 0 1 170 171 202
368 4 0 1 171 203 202
369 4 0 1 171 172 203
370 4 0 1 172 204 203
371 4 0 1 172 173 204
372 4 0 1 173 205 204
373 4 0 1 173 174 205
374 4 0 1 174 206 205
375 4 0 1 174 175 206
376 4 0 1 175 207 206
377 4 0 1 175 176 207
378 4 0 1 176 208 207
379 4 0 1 176 177 208
380 4 0 1 177 209 208
381 4 0 1 177 178 209
382 4 0 1 178 210 209
383 4 0 1 178 179 210
384 4 0 1 179 211 210
385 4 0 1 179 180 211
386 4 0 1 180 212 211
387 4 0 1 180 181 212
388 4 0 1 181 213 212
389 4 0 1 181 182 213
390 4 0 1 182 214 213
391 4 0 1 182 183 214
392 4 0 1 183 215 214
393 4 0 1 183 184 215
394 4 0 1 184 216 215
395 4 0 1 184 185 216
396 4 0 1 185 217 216
397 4 0 1 185 186 217
398 4 0 1 186 218 217
399 4 0 1 186 187 218
400 4 0 1 187 219 218
401 4 0 1 187 188 219
402 4 0 1 188 220 219
403 4 0 1 188 189 220
404 4 0 1 189 221 220
405 4 0 1 189 190 221
406 4 0 1 190 222 221
407 4 0 1 190 191 222
408 4 0 1 191 223 222
409 4 0 1 191 192 223
410 4 0 1 192 224 223
411 4 0 1 192 193 224
412 4 0 1 193 225 224
413 4 0 1 193 194 225
414 4 0 1 194 226 225
415 4 0 1 194 163 226
416 4 0 1 163 195 226
417 4 0 1 195 196 227
418 4 0 1 196 228 227
419 4 0 1 196 197 228
420 4 0 1 197 229 228
421 4 0 1 197 198 229
422 4 0 1 198 230 229
423 4 0 1 198 199 230
424 4 0 1 199 231 230
425 4 0 1 199 200 231
426 4 0 1 200 232 231
427 4 0 1 200 201 232
428 4 0 1 201 233 232
429 4 0 1 201 202 233
430 4 0 1 202 234 233
431 4 0 1 202 203 234
432 4 0 1 203 235 234
433 4 0 1 203 204 235
434 4 0 1 204 236 235
435 4 0 1 204 205 236
436 4 0 1 205 237 236
437 4 0 1 205 206 237
438 4 0 1 206 238 237
439 4 0 1 206 207 238
440 4 0 1 207 239 238
441 4 0 1 207 208 239
442 4 0 1 208 240 239
443 4 0 1 208 209 240
444 4 0 1 209 241 240
445 4 0 1 209 210 241
446 4 0 1 210 242 241
447 4 0 1 210 211 242
448 4 0 1 211 243 242
449 4 0 1 211 212 243
450 4 0 1 212 244 243
451 4 0 1 212 213 244
452 4 0 1 213 245 244
453 4 0 1 213 214 245
454 4 0 1 214 246 245
455 4 0 1 214 215 246
456 4 0 1 215 247 246
457 4 0 1 215 216 247
458 4 0 1 216 248 247
459 4 0 1 216 217 248
460 4 0 1 217 249 248
461 4 0 1 217 218 249
462 4 0 1 218 250 249
463 4 0 1 218 219 250
464 4 0 1 219 251 250
465 4 0 1 219 220 251
466 4 0 1 220 252 251
467 4 0 1 220 221 252
468 4 0 1 221 253 252
469 4 0 1 221 222 253
470 4 0 1 222 254 253
471 4 0 1 222 223 254
472 4 0 1 223 255 254
473 4 0 1 223 224 255
474 4 0 1 224 256 255
475 4 0 1 224 225 256
476 4 0 1 225 257 256
477 4 0 1 225 226 257
478 4 0 1 226 258 257
479 4 0 1 226 195 258
480 4 0 1 195 227 258
481 4 0 1 227 228 259
482 4 0 1 228 260 259
483 4 0 1 228 229 260
484 4 0 1 229 261 260
485 4 0 1 229 230 261
486 4 0 1 230 262 261
487 4 0 1 230 231 262
488 4 0 1 231 263 262
489 4 0 1 231 232 263
490 4 0 1 232 264 263
491 4 0 1 232 233 264
492 4 0 1 233 265 264
493 4 0 1 233 234 265
494 4 0 1 234 266 265
495 4 0 1 234 235 266
496 4 0 1 235 267 266
497 4 0 1 235 236 267
498 4 0 1 236 268 267
499 4 0 1 236 237 268
500 4 0 1 237 269 268
501 4 0 1 237 238 269
502 4 0 1 238 270 269
503 4 0 1 238 239 270
504 4 0 1 239 271 270
505 4 0 1 239 240 271
506 4 0 1 240 272 271
507 4 0 1 240 241 272
508 4 0 1 241 273 272
509 4 0 1 241 242 273
510 4 0 1 242 274 273
511 4 0 1 242 243 274
512 4 0 1 243 275 274
513 4 0 1 243 244 275
514 4 0 1 244 276 275
515 4 0 1 244 245 276
516 4 0 1 245 277 276
517 4 0 1 245 246 277
518 4 0 1 246 278 277
519 4 0 1 246 247 278
520 4 0 1 247 279 278
521 4 0 1 247 248 279
522 4 0 1 248 280 279
523 4 0 1 248 249 280
524 4 0 1 249 281 280
525 4 0 1 249 250 281
526 4 0 1 250 282 281
527 4 0 1 250 251 282
528 4 0 1 251 283 282
529 4 0 1 251 252 283
530 4 0 1 252 284 283
531 4 0 1 252 253 284
532 4 0 1 253 285 284
533 4 0 1 253 254 285
534 4 0 1 254 286 285
535 4 0 1 254 255 286
536 4 0 1 255 287 286
537 4 0 1 255 256 287
538 4 0 1 256 288 287
539 4 0 1 256 257 288
540 4 0 1 257 289 288
541 4 0 1 257 258 289
542 4 0 1 258 290 289
543 4 0 1 258 227 290
544 4 0 1 227 259 290
545 4 0 1 259 260 291
546 4 0 1 260 292 291
547 4 0 1 260 261 292
548 4 0 1 261 293 292
549 4 0 1 261 262 293
550 4 0 1 262 294 293
551 4 0 1 262 263 294
552 4 0 1 263 295 294
553 4 0 1 263 264 295
554 4 0 1 264 296 295
555 4 0 1 264 265 296
556 4 0 1 265 297 296
557 4 0 1 265 266 297
558 4 0 1 266 298 297
559 4 0 1 266 267 298
560 4 0 1 267 299 298
561 4 0 1 267 268 299
562 4 0 1 268 300 299
563 4 0 1 268 269 300
564 4 0 1 269 301 300
565 4 0 1 269 270 301
566 4 0 1 270 302 301
567 4 0 1 270 271 302
568 4 0 1 271 303 302
569 4 0 1 271 272 303
570 4 0 1 272 304 303
571 4 0 1 272 273 304
572 4 0 1 273 305 304
573 4 0 1 273 274 305
574 4 0 1 274 306 305
575 4 0 1 274 275 306
576 4 0 1 275 307 306
577 4 0 1 275 276 307
578 4 0 1 276 308 307
579 4 0 1 276 277 308
580 4 0 1 277 309 308
581 4 0 1 277 278 309
582 4 0 1 278 310 309
583 4 0 1 278 279 310
584 4 0 1 279 311 310
585 4 0 1 279 280 311
586 4 0 1 280 312 311
587 4 0 1 280 281 312
588 4 0 1 281 313 312
589 4 0 1 281 282 313
590 4 0 1 282 314 313
591 4 0 1 282 283 314
592 4 0 1 283 315 314
593 4 0 1 283 284 315
594 4 0 1 284 316 315
595 4 0 1 284 285 316
596 4 0 1 285 317 316
597 4 0 1 285 286 317
598 4 0 1 286 318 317
599 4 0 1 286 287 318
600 4 0 1 287 319 318
601 4 0 1 287 288 319
602 4 0 1 288 320 319
603 4 0 1 288 289 320
604 4 0 1 289 321 320
605 4 0 1 289 290 321
606 4 0 1 290 322 321
607 4 0 1 290 259 322
608 4 0 1 259 291 322
609 4 0 1 291 292 323
610 4 0 1 292 324 323
611 4 0 1 292 293 324
612 4 0 1 293 325 324
613 4 0 1 293 294 325
614 4 0 1 294 326 325
615 4 0 1 294 295 326
616 4 0 1 295 327 326
617 4 0 1 295 296 327
618 4 0 1 296 328 327
619 4 0 1 296 297 328
620 4 0 1 297 329 328
621 4 0 1 297 298 329
622 4 0 1 298 330 329
623 4 0 1 298 299 330
624 4 0 1 299 331 330
625 4 0 1 299 300 331
626 4 0 1 300 332 331
627 4 0 1 300 301 332
628 4 0 1 301 333 332
629 4 0 1 301 302 333
630 4 0 1 302 334 333
631 4 0 1 302 303 334
632 4 0 1 303 335 334
633 4 0 1 303 304 335
634 4 0 1 304 336 335
635 4 0 1 304 305 336
636 4 0 1 305 337 336
637 4 0 1 305 306 337
638 4 0 1 306 338 337
639 4 0 1 306 307 338
640 4 0 1 307 339 338
641 4 0 1 307 308 339
642 4 0 1 308 340 339
643 4 0 1 308 309 340
644 4 0 1 309 341 340
645 4 0 1 309 310 341
646 4 0 1 310 342 341
647 4 0 1 310 311 342
648 4 0 1 311 343 342
649 4 0 1 311 312 343
650 4 0 1 312 344 343
651 4 0 1 312 313 344
652 4 0 1 313 345 344
653 4 0 1 313 314 345
654 4 0 1 314 346 345
655 4 0 1 314 315 346
656 4 0 1 315 347 346
657 4 0 1 315 316 347
658 4 0 1 316 348 347
659 4 0 1 316 317 348
660 4 0 1 317 349 348
661 4 0 1 317 318 349
662 4 0 1 318 350 349
663 4 0 1 318 319 350
664 4 0 1 319 351 350
665 4 0 1 319 320 351
666 4 0 1 320 352 351
667 4 0 1 320 321 352
668 4 0 1 321 353 352
669 4 0 1 321 322 353
670 4 0 1 322 354 353
671 4 0 1 322 291 354
672 4 0 1 291 323 354
673 4 0 1 323 324 355
674 4 0 1 324 356 355
675 4 0 1 324 325 356
676 4 0 1 325 357 356
677 4 0 1 325 326 357
678 4 0 1 326 358 357
679 4 0 1 326 327 358
680 4 0 1 327 359 358
681 4 0 1 327 328 359
682 4 0 1 328 360 359
683 4 0 1 328 329 360
684 4 0 1 329 361 360
685 4 0 1 329 330 361
686 4 0 1 330 362 361
687 4 0 1 330 331 362
688 4 0 1 331 363 362
689 4 0 1 331 332 363
690 4 0 1 332 364 363
691 4 0 1 332 333 364
692 4 0 1 333 365 364
693 4 0 1 333 334 365
694 4 0 1 334 366 365
695 4 0 1 334 335 366
696 4 0 1 335 367 366
697 4 0 1 335 336 367
698 4 0 1 336 368 367
699 4 0 1 336 337 368
700 4 0 1 337 369 368
701 4 0 1 337 338 369
702 4 0 1 338 370 369
703 4 0 1 338 339 370
704 4 0 1 339 371 370
705 4 0 1 339 340 371
706 4 0 1 340 372 371
707 4 0 1 340 341 372
708 4 0 1 341 373 372
709 4 0 1 341 342 373
710 4 0 1 342 374 373
711 4 0 1 342 343 374
712 4 0 1 343 375 374
713 4 0 1 343 344 375
714 4 0 1 344 376 375
715 4 0 1 344 345 376
716 4 0 1 345 377 376
717 4 0 1 345 346 377
718 4 0 1 346 378 377
719 4 0 1 346 347 378
720 4 0 1 347 379 378
721 4 0 1 347 348 379
722 4 0 1 348 380 379
723 4 0 1 348 349 380
724 4 0 1 349 381 380
725 4 0 1 349 350 381
726 4 0 1 350 382 381
727 4 0 1 350 351 382
728 4 0 1 351 383 382
729 4 0 1 351 352 383
730 4 0 1 352 384 383
731 4 0 1 352 353 384
732 4 0 1 353 385 384
733 4 0 1 353 354 385
734 4 0 1 354 386 385
735 4 0 1 354 323 386
736 4 0 1 323 355 386
737 4 0 1 355 356 387
738 4 0 1 356 388 387
739 4 0 1 356 357 388
740 4 0 1 357 389 388
741 4 0 1 357 358 389
742 4 0 1 358 390 389
743 4 0 1 358 359 390
744 4 0 1 359 391 390
745 4 0 1 359 360 391
746 4 0 1 360 392 391
747 4 0 1 360 361 392
748 4 0 1 361 393 392
749 4 0 1 361 362 393
750 4 0 1 362 394 393
751 4 0 1 362 363 394
752 4 0 1 363 395 394
753 4 0 1 363 364 395
754 4 0 1 364 396 395
755 4 0 1 364 365 396
756 4 0 1 365 397 396
757 4 0 1 365 366 397
758 4 0 1 366 398 397
759 4 0 1 366 367 398
760 4 0 1 367 399 398
761 4 0 1 367 368 399
762 4 0 1 368 400 399
763 4 0 1 368 369 400
764 4 0 1 369 401 400
765 4 0 1 369 370 401
766 4 0 1 370 402 401
767 4 0 1 370 371 402
768 4 0 1 371 403 402
769 4 0 1 371 372 403
770 4 0 1 372 404 403
771 4 0 1 372 373 404
772 4 0 1 373 405 404
773 4 0 1 373 374 405
774 4 0 1 374 406 405
775 4 0 1 374 375 406
776 4 0 1 375 407 406
777 4 0 1 375 376 407
778 4 0 1 376 408 407
779 4 0 1 376 377 408
780 4 0 1 377 409 408
781 4 0 1 377 378 409
782 4 0 1 378 410 409
783 4 0 1 378 379 410
784 4 0 1 379 411 410
785 4 0 1 379 380 411
786 4 0 1 380 412 411
787 4 0 1 380 381 412
788 4 0 1 381 413 412
789 4 0 1 381 382 413
790 4 0 1 382 414 413
791 4 0 1 382 383 414
792 4 0 1 383 415 414
793 4 0 1 383 384 415
794 4 0 1 384 416 415
795 4 0 1 384 385 416
796 4 0 1 385 417 416
797 4 0 1 385 386 417
798 4 0 1 386 418 417
799 4 0 1 386 355 418
800 4 0 1 355 387 418
801 4 0 1 387 388 419
802 4 0 1 388 420 419
803 4 0 1 388 389 420
804 4 0 1 389 421 420
805 4 0 1 389 390 421
806 4 0 1 390 422 421
807 4 0 1 390 391 422
808 4 0 1 391 423 422
809 4 0 1 391 392 423
810 4 0 1 392 424 423
811 4 0 1 392 393 424
812 4 0 1 393 425 424
813 4 0 1 393 394 425
814 4 0 1 394 426 425
815 4 0 1 394 395 426
816 4 0 1 395 427 426
817 4 0 1 395 396 427
818 4 0 1 396 428 427
819 4 0 1 396 397 428
820 4 0 1 397 429 428
821 4 0 1 397 398 429
822 4 0 1 398 430 429
823 4 0 1 398 399 430
824 4 0 1 399 431 430
825 4 0 1 399 400 431
826 4 0 1 400 432 431
827 4 0 1 400 401 432
828 4 0 1 401 433 432
829 4 0 1 401 402 433
830 4 0 1 402 434 433
831 4 0 1 402 403 434
832 4 0 1 403 435 434
833 4 0 1 403 404 435
834 4 0 1 404 436 435
835 4 0 1 404 405 436
836 4 0 1 405 437 436
837 4 0 1 405 406 437
838 4 0 1 406 438 437
839 4 0 1 406 407 438
840 4 0 1 407 439 438
841 4 0 1 407 408 439
842 4 0 1 408 440 439
843 4 0 1 408 409 440
844 4 0 1 409 441 440
845 4 0 1 409 410 441
846 4 0 1 410 442 441
847 4 0 1 410 411 442
848 4 0 1 411 443 442
849 4 0 1 411 412 443
850 4 0 1 412 444 443
851 4 0 1 412 413 444
852 4 0 1 413 445 444
853 4 0 1 413 414 445
854 4 0 1 414 446 445
855 4 0 1 414 415 446
856 4 0 1 415 447 446
857 4 0 1 415 416 447
858 4 0 1 416 448 447
859 4 0 1 416 417 448
860 4 0 1 417 449 448
861 4 0 1 417 418 449
862 4 0 1 418 450 449
863 4 0 1 418 387 450
864 4 0 1 387 419 450
865 4 0 1 419 420 451
866 4 0 1 420 452 451
867 4 0 1 420 421 452
868 4 0 1 421 453 452
869 4 0 1 421 422 453
870 4 0 1 422 454 453
871 4 0 1 422 423 454
872 4 0 1 423 455 454
873 4 0 1 423 424 455
874 4 0 1 424 456 455
875 4 0 1 424 425 456
876 4 0 1 425 457 456
877 4 0 1 425 426 457
878 4 0 1 426 458 457
879 4 0 1 426 427 458
880 4 0 1 427 459 458
881 4 0 1 427 428 459
882 4 0 1 428 460 459
883 4 0 1 428 429 460
884 4 0 1 429 461 460
885 4 0 1 429 430 461
886 4 0 1 430 462 461
887 4 0 1 430 431 462
888 4 0 1 431 463 462
889 4 0 1 431 432 463
890 4 0 1 432 464 463
891 4 0 1 432 433 464
892 4 0 1 433 465 464
893 4 0 1 433 434 465
894 4 0 1 434 466 465
895 4 0 1 434 435 466
896 4 0 1 435 467 466
897 4 0 1 435 436 467
898 4 0 1 436 468 467
899 4 0 1 436 437 468
900 4 0 1 437 469 468
901 4 0 1 437 438 469
902 4 0 1 438 470 469
903 4 0 1 438 439 470
904 4 0 1 439 471 470
905 4 0 1 439 440 471
906 4 0 1 440 472 471
907 4 0 1 440 441 472
908 4 0 1 441 473 472
909 4 0 1 441 442 473
910 4 0 1 442 474 473
911 4 0 1 442 443 474
912 4 0 1 443 475 474
913 4 0 1 443 444 475
914 4 0 1 444 476 475
915 4 0 1 444 445 476
916 4 0 1 445 477 476
917 4 0 1 445 446 477
918 4 0 1 446 478 477
919 4 0 1 446 447 478
920 4 0 1 447 479 478
921 4 0 1 447 448 479
922 4 0 1 448 480 479
923 4 0 1 448 449 480
924 4 0 1 449 481 480
925 4 0 1 449 450 481
926 4 0 1 450 482 481
927 4 0 1 450 419 482
928 4 0 1 419 451 482
929 4 0 1 483 451 452
930 4 0 1 483 452 453
931 4 0 1 483 453 454
932 4 0 1 483 454 455
933 4 0 1 483 455 456
934 4 0 1 483 456 457
935 4 0 1 483 457 458
936 4 0 1 483 458 459
937 4 0 1 483 459 460
938 4 0 1 483 460 461
939 4 0 1 483 461 462
940 4 0 1 483 462 463
941 4 0 1 483 463 464
942 4 0 1 483 464 465
943 4 0 1 483 465 466
944 4 0 1 483 466 467
945 4 0 1 483 467 468
946 4 0 1 483 468 469
947 4 0 1 483 469 470
948 4 0 1 483 470 471
949 4 0 1 483 471 472
950 4 0 1 483 472 473
951 4 0 1 483 473 474
952 4 0 1 483 474 475
953 4 0 1 483 475 476
954 4 0 1 483 476 477
955 4 0 1 483 477 478
956 4 0 1 483 478 479
957 4 0 1 483 479 480
958 4 0 1 483 480 481
959 4 0 1 483 481 482
960 4 0 1 483 482 451
$EndElements
