v -4.375000000000e-01 0.000000000000e+00 1.000000000000e+00
v -4.375000000000e-01 0.000000000000e+00 9.375000000000e-01
v -5.000000000000e-01 0.000000000000e+00 9.375000000000e-01
v -5.625000000000e-01 0.000000000000e+00 9.375000000000e-01
v -4.375000000000e-01 0.000000000000e+00 8.750000000000e-01
v -3.750000000000e-01 0.000000000000e+00 9.375000000000e-01
v -4.375000000000e-01 0.000000000000e+00 8.125000000000e-01
v -3.750000000000e-01 0.000000000000e+00 8.125000000000e-01
v -5.000000000000e-01 0.000000000000e+00 8.750000000000e-01
v -3.125000000000e-01 0.000000000000e+00 7.500000000000e-01
v -3.125000000000e-01 0.000000000000e+00 8.125000000000e-01
v -3.750000000000e-01 0.000000000000e+00 1.000000000000e+00
v -3.750000000000e-01 0.000000000000e+00 8.750000000000e-01
v -5.000000000000e-01 0.000000000000e+00 1.000000000000e+00
v -5.625000000000e-01 0.000000000000e+00 1.000000000000e+00
v -3.125000000000e-01 0.000000000000e+00 1.000000000000e+00
v -2.500000000000e-01 0.000000000000e+00 1.000000000000e+00
v -2.500000000000e-01 0.000000000000e+00 7.500000000000e-01
v -1.875000000000e-01 0.000000000000e+00 8.125000000000e-01
v -1.250000000000e-01 0.000000000000e+00 8.750000000000e-01
v -1.875000000000e-01 0.000000000000e+00 8.750000000000e-01
v -2.500000000000e-01 0.000000000000e+00 8.750000000000e-01
v -3.125000000000e-01 0.000000000000e+00 8.750000000000e-01
v -1.250000000000e-01 0.000000000000e+00 8.125000000000e-01
v -1.250000000000e-01 0.000000000000e+00 7.500000000000e-01
v -1.875000000000e-01 0.000000000000e+00 7.500000000000e-01
v -1.875000000000e-01 0.000000000000e+00 1.000000000000e+00
v -1.875000000000e-01 0.000000000000e+00 9.375000000000e-01
v -2.500000000000e-01 0.000000000000e+00 9.375000000000e-01
v -3.125000000000e-01 0.000000000000e+00 9.375000000000e-01
v -2.500000000000e-01 0.000000000000e+00 8.125000000000e-01
v -1.250000000000e-01 0.000000000000e+00 5.000000000000e-01
v -6.250000000000e-02 0.000000000000e+00 6.250000000000e-01
v -1.250000000000e-01 0.000000000000e+00 6.250000000000e-01
v -1.875000000000e-01 0.000000000000e+00 6.250000000000e-01
v -2.500000000000e-01 0.000000000000e+00 6.250000000000e-01
v -6.250000000000e-02 0.000000000000e+00 5.000000000000e-01
v -1.875000000000e-01 0.000000000000e+00 4.375000000000e-01
v -2.500000000000e-01 0.000000000000e+00 6.875000000000e-01
v -1.875000000000e-01 0.000000000000e+00 6.875000000000e-01
v -1.250000000000e-01 0.000000000000e+00 6.875000000000e-01
v -1.250000000000e-01 0.000000000000e+00 4.375000000000e-01
v -6.250000000000e-02 0.000000000000e+00 5.625000000000e-01
v -1.250000000000e-01 0.000000000000e+00 5.625000000000e-01
v -1.875000000000e-01 0.000000000000e+00 5.625000000000e-01
v -1.875000000000e-01 0.000000000000e+00 5.000000000000e-01
v -6.250000000000e-02 0.000000000000e+00 4.375000000000e-01
v -3.750000000000e-01 0.000000000000e+00 5.625000000000e-01
v -3.125000000000e-01 0.000000000000e+00 5.625000000000e-01
v -2.500000000000e-01 0.000000000000e+00 5.625000000000e-01
v -2.500000000000e-01 0.000000000000e+00 5.000000000000e-01
v -3.125000000000e-01 0.000000000000e+00 5.000000000000e-01
v -4.375000000000e-01 0.000000000000e+00 6.250000000000e-01
v -4.375000000000e-01 0.000000000000e+00 7.500000000000e-01
v -4.375000000000e-01 0.000000000000e+00 6.875000000000e-01
v -3.750000000000e-01 0.000000000000e+00 5.000000000000e-01
v -3.750000000000e-01 0.000000000000e+00 6.875000000000e-01
v -3.125000000000e-01 0.000000000000e+00 4.375000000000e-01
v -3.125000000000e-01 0.000000000000e+00 6.250000000000e-01
v -2.500000000000e-01 0.000000000000e+00 4.375000000000e-01
v -3.750000000000e-01 0.000000000000e+00 7.500000000000e-01
v -3.125000000000e-01 0.000000000000e+00 6.875000000000e-01
v -3.750000000000e-01 0.000000000000e+00 6.250000000000e-01
v -5.000000000000e-01 0.000000000000e+00 5.000000000000e-01
v -5.625000000000e-01 0.000000000000e+00 5.000000000000e-01
v -6.250000000000e-01 0.000000000000e+00 6.875000000000e-01
v -6.875000000000e-01 0.000000000000e+00 6.875000000000e-01
v -6.250000000000e-01 0.000000000000e+00 5.000000000000e-01
v -6.875000000000e-01 0.000000000000e+00 7.500000000000e-01
v -5.625000000000e-01 0.000000000000e+00 6.250000000000e-01
v -4.375000000000e-01 0.000000000000e+00 5.625000000000e-01
v -5.000000000000e-01 0.000000000000e+00 5.625000000000e-01
v -5.000000000000e-01 0.000000000000e+00 6.250000000000e-01
v -6.250000000000e-01 0.000000000000e+00 6.250000000000e-01
v -6.875000000000e-01 0.000000000000e+00 6.250000000000e-01
v -5.625000000000e-01 0.000000000000e+00 5.625000000000e-01
v -6.250000000000e-01 0.000000000000e+00 5.625000000000e-01
v -4.375000000000e-01 0.000000000000e+00 5.000000000000e-01
v -7.500000000000e-01 0.000000000000e+00 5.625000000000e-01
v -9.375000000000e-01 0.000000000000e+00 7.500000000000e-01
v -7.500000000000e-01 0.000000000000e+00 6.875000000000e-01
v -8.125000000000e-01 0.000000000000e+00 6.875000000000e-01
v -8.750000000000e-01 0.000000000000e+00 6.875000000000e-01
v -8.750000000000e-01 0.000000000000e+00 7.500000000000e-01
v -8.125000000000e-01 0.000000000000e+00 7.500000000000e-01
v -1.000000000000e+00 0.000000000000e+00 8.125000000000e-01
v -7.500000000000e-01 0.000000000000e+00 6.250000000000e-01
v -8.750000000000e-01 0.000000000000e+00 8.125000000000e-01
v -9.375000000000e-01 0.000000000000e+00 8.125000000000e-01
v -8.125000000000e-01 0.000000000000e+00 6.250000000000e-01
v -1.000000000000e+00 0.000000000000e+00 8.750000000000e-01
v -6.875000000000e-01 0.000000000000e+00 5.000000000000e-01
v -6.875000000000e-01 0.000000000000e+00 5.625000000000e-01
v -7.500000000000e-01 0.000000000000e+00 7.500000000000e-01
v -5.625000000000e-01 0.000000000000e+00 6.875000000000e-01
v -6.250000000000e-01 0.000000000000e+00 7.500000000000e-01
v -5.625000000000e-01 0.000000000000e+00 7.500000000000e-01
v -5.000000000000e-01 0.000000000000e+00 7.500000000000e-01
v -5.000000000000e-01 0.000000000000e+00 8.125000000000e-01
v -5.625000000000e-01 0.000000000000e+00 8.125000000000e-01
v -6.875000000000e-01 0.000000000000e+00 9.375000000000e-01
v -6.250000000000e-01 0.000000000000e+00 9.375000000000e-01
v -6.875000000000e-01 0.000000000000e+00 8.125000000000e-01
v -5.000000000000e-01 0.000000000000e+00 6.875000000000e-01
v -6.250000000000e-01 0.000000000000e+00 8.125000000000e-01
v -5.625000000000e-01 0.000000000000e+00 8.750000000000e-01
v -6.250000000000e-01 0.000000000000e+00 8.750000000000e-01
v -6.875000000000e-01 0.000000000000e+00 8.750000000000e-01
v -6.875000000000e-01 0.000000000000e+00 1.000000000000e+00
v -6.250000000000e-01 0.000000000000e+00 1.000000000000e+00
v -7.500000000000e-01 0.000000000000e+00 8.750000000000e-01
v -7.500000000000e-01 0.000000000000e+00 8.125000000000e-01
v -7.500000000000e-01 0.000000000000e+00 9.375000000000e-01
v -8.125000000000e-01 0.000000000000e+00 9.375000000000e-01
v -8.750000000000e-01 0.000000000000e+00 9.375000000000e-01
v -9.375000000000e-01 0.000000000000e+00 9.375000000000e-01
v -1.000000000000e+00 0.000000000000e+00 9.375000000000e-01
v -8.125000000000e-01 0.000000000000e+00 1.000000000000e+00
v -9.375000000000e-01 0.000000000000e+00 1.000000000000e+00
v -8.125000000000e-01 0.000000000000e+00 8.125000000000e-01
v -8.125000000000e-01 0.000000000000e+00 8.750000000000e-01
v -8.750000000000e-01 0.000000000000e+00 8.750000000000e-01
v -9.375000000000e-01 0.000000000000e+00 8.750000000000e-01
v -1.000000000000e+00 0.000000000000e+00 1.000000000000e+00
v -7.500000000000e-01 0.000000000000e+00 1.000000000000e+00
v -8.750000000000e-01 0.000000000000e+00 1.000000000000e+00
v -7.500000000000e-01 0.000000000000e+00 6.250000000000e-02
v -6.875000000000e-01 0.000000000000e+00 6.250000000000e-02
v -6.875000000000e-01 0.000000000000e+00 1.250000000000e-01
v -7.500000000000e-01 0.000000000000e+00 1.250000000000e-01
v -1.000000000000e+00 0.000000000000e+00 0.000000000000e+00
v -1.000000000000e+00 0.000000000000e+00 6.250000000000e-02
v -9.375000000000e-01 0.000000000000e+00 6.250000000000e-02
v -6.875000000000e-01 0.000000000000e+00 0.000000000000e+00
v -7.500000000000e-01 0.000000000000e+00 0.000000000000e+00
v -8.125000000000e-01 0.000000000000e+00 0.000000000000e+00
v -8.125000000000e-01 0.000000000000e+00 6.250000000000e-02
v -8.125000000000e-01 0.000000000000e+00 1.250000000000e-01
v -8.750000000000e-01 0.000000000000e+00 6.250000000000e-02
v -9.375000000000e-01 0.000000000000e+00 0.000000000000e+00
v -8.750000000000e-01 0.000000000000e+00 0.000000000000e+00
v -8.750000000000e-01 0.000000000000e+00 1.250000000000e-01
v -9.375000000000e-01 0.000000000000e+00 3.750000000000e-01
v -9.375000000000e-01 0.000000000000e+00 1.875000000000e-01
v -1.000000000000e+00 0.000000000000e+00 1.875000000000e-01
v -8.750000000000e-01 0.000000000000e+00 3.125000000000e-01
v -1.000000000000e+00 0.000000000000e+00 3.750000000000e-01
v -8.750000000000e-01 0.000000000000e+00 1.875000000000e-01
v -1.000000000000e+00 0.000000000000e+00 3.125000000000e-01
v -9.375000000000e-01 0.000000000000e+00 3.125000000000e-01
v -8.125000000000e-01 0.000000000000e+00 1.875000000000e-01
v -1.000000000000e+00 0.000000000000e+00 4.375000000000e-01
v -1.000000000000e+00 0.000000000000e+00 1.250000000000e-01
v -9.375000000000e-01 0.000000000000e+00 1.250000000000e-01
v -1.000000000000e+00 0.000000000000e+00 2.500000000000e-01
v -9.375000000000e-01 0.000000000000e+00 2.500000000000e-01
v -8.750000000000e-01 0.000000000000e+00 2.500000000000e-01
v -8.125000000000e-01 0.000000000000e+00 3.125000000000e-01
v -6.875000000000e-01 0.000000000000e+00 1.875000000000e-01
v -6.875000000000e-01 0.000000000000e+00 2.500000000000e-01
v -7.500000000000e-01 0.000000000000e+00 1.875000000000e-01
v -7.500000000000e-01 0.000000000000e+00 3.125000000000e-01
v -6.875000000000e-01 0.000000000000e+00 3.125000000000e-01
v -7.500000000000e-01 0.000000000000e+00 4.375000000000e-01
v -7.500000000000e-01 0.000000000000e+00 5.000000000000e-01
v -8.125000000000e-01 0.000000000000e+00 3.750000000000e-01
v -7.500000000000e-01 0.000000000000e+00 3.750000000000e-01
v -6.875000000000e-01 0.000000000000e+00 3.750000000000e-01
v -8.750000000000e-01 0.000000000000e+00 3.750000000000e-01
v -8.125000000000e-01 0.000000000000e+00 4.375000000000e-01
v -6.875000000000e-01 0.000000000000e+00 4.375000000000e-01
v -8.125000000000e-01 0.000000000000e+00 2.500000000000e-01
v -7.500000000000e-01 0.000000000000e+00 2.500000000000e-01
v -9.375000000000e-01 0.000000000000e+00 6.250000000000e-01
v -9.375000000000e-01 0.000000000000e+00 5.000000000000e-01
v -9.375000000000e-01 0.000000000000e+00 4.375000000000e-01
v -9.375000000000e-01 0.000000000000e+00 5.625000000000e-01
v -8.750000000000e-01 0.000000000000e+00 6.250000000000e-01
v -1.000000000000e+00 0.000000000000e+00 5.000000000000e-01
v -9.375000000000e-01 0.000000000000e+00 6.875000000000e-01
v -8.750000000000e-01 0.000000000000e+00 5.625000000000e-01
v -8.125000000000e-01 0.000000000000e+00 5.625000000000e-01
v -1.000000000000e+00 0.000000000000e+00 6.250000000000e-01
v -1.000000000000e+00 0.000000000000e+00 6.875000000000e-01
v -1.000000000000e+00 0.000000000000e+00 7.500000000000e-01
v -1.000000000000e+00 0.000000000000e+00 5.625000000000e-01
v -8.125000000000e-01 0.000000000000e+00 5.000000000000e-01
v -8.750000000000e-01 0.000000000000e+00 5.000000000000e-01
v -8.750000000000e-01 0.000000000000e+00 4.375000000000e-01
v -6.250000000000e-01 0.000000000000e+00 6.250000000000e-02
v -5.625000000000e-01 0.000000000000e+00 6.250000000000e-02
v -5.000000000000e-01 0.000000000000e+00 6.250000000000e-02
v -4.375000000000e-01 0.000000000000e+00 6.250000000000e-02
v -5.000000000000e-01 0.000000000000e+00 0.000000000000e+00
v -5.625000000000e-01 0.000000000000e+00 0.000000000000e+00
v -6.250000000000e-01 0.000000000000e+00 0.000000000000e+00
v -3.750000000000e-01 0.000000000000e+00 6.250000000000e-02
v -6.250000000000e-01 0.000000000000e+00 1.875000000000e-01
v -4.375000000000e-01 0.000000000000e+00 1.250000000000e-01
v -5.000000000000e-01 0.000000000000e+00 1.250000000000e-01
v -5.625000000000e-01 0.000000000000e+00 1.250000000000e-01
v -6.250000000000e-01 0.000000000000e+00 1.250000000000e-01
v -4.375000000000e-01 0.000000000000e+00 0.000000000000e+00
v -3.750000000000e-01 0.000000000000e+00 0.000000000000e+00
v -6.250000000000e-01 0.000000000000e+00 2.500000000000e-01
v -5.625000000000e-01 0.000000000000e+00 1.875000000000e-01
v -5.000000000000e-01 0.000000000000e+00 3.750000000000e-01
v -6.250000000000e-01 0.000000000000e+00 3.125000000000e-01
v -4.375000000000e-01 0.000000000000e+00 1.875000000000e-01
v -5.625000000000e-01 0.000000000000e+00 3.750000000000e-01
v -5.625000000000e-01 0.000000000000e+00 3.125000000000e-01
v -5.000000000000e-01 0.000000000000e+00 3.125000000000e-01
v -5.000000000000e-01 0.000000000000e+00 1.875000000000e-01
v -6.250000000000e-01 0.000000000000e+00 3.750000000000e-01
v -4.375000000000e-01 0.000000000000e+00 2.500000000000e-01
v -5.000000000000e-01 0.000000000000e+00 4.375000000000e-01
v -6.250000000000e-01 0.000000000000e+00 4.375000000000e-01
v -5.000000000000e-01 0.000000000000e+00 2.500000000000e-01
v -5.625000000000e-01 0.000000000000e+00 2.500000000000e-01
v -5.625000000000e-01 0.000000000000e+00 4.375000000000e-01
v -1.250000000000e-01 0.000000000000e+00 0.000000000000e+00
v -1.875000000000e-01 0.000000000000e+00 6.250000000000e-02
v -2.500000000000e-01 0.000000000000e+00 -6.250000000000e-02
v -1.250000000000e-01 0.000000000000e+00 -1.250000000000e-01
v -3.125000000000e-01 0.000000000000e+00 1.250000000000e-01
v -2.500000000000e-01 0.000000000000e+00 1.250000000000e-01
v -3.125000000000e-01 0.000000000000e+00 1.875000000000e-01
v -3.750000000000e-01 0.000000000000e+00 1.875000000000e-01
v -2.500000000000e-01 0.000000000000e+00 6.250000000000e-02
v -1.875000000000e-01 0.000000000000e+00 0.000000000000e+00
v -3.125000000000e-01 0.000000000000e+00 0.000000000000e+00
v -2.500000000000e-01 0.000000000000e+00 0.000000000000e+00
v -1.250000000000e-01 0.000000000000e+00 -6.250000000000e-02
v -1.875000000000e-01 0.000000000000e+00 -6.250000000000e-02
v -3.750000000000e-01 0.000000000000e+00 1.250000000000e-01
v -3.125000000000e-01 0.000000000000e+00 6.250000000000e-02
v -1.250000000000e-01 0.000000000000e+00 2.500000000000e-01
v -1.875000000000e-01 0.000000000000e+00 1.250000000000e-01
v -6.250000000000e-02 0.000000000000e+00 6.250000000000e-02
v -6.250000000000e-02 0.000000000000e+00 2.500000000000e-01
v -6.250000000000e-02 0.000000000000e+00 0.000000000000e+00
v -1.875000000000e-01 0.000000000000e+00 1.875000000000e-01
v -1.250000000000e-01 0.000000000000e+00 3.125000000000e-01
v -1.250000000000e-01 0.000000000000e+00 1.875000000000e-01
v -1.875000000000e-01 0.000000000000e+00 3.750000000000e-01
v -6.250000000000e-02 0.000000000000e+00 1.875000000000e-01
v -1.250000000000e-01 0.000000000000e+00 6.250000000000e-02
v -6.250000000000e-02 0.000000000000e+00 3.125000000000e-01
v -6.250000000000e-02 0.000000000000e+00 3.750000000000e-01
v -6.250000000000e-02 0.000000000000e+00 1.250000000000e-01
v -1.250000000000e-01 0.000000000000e+00 1.250000000000e-01
v -1.250000000000e-01 0.000000000000e+00 3.750000000000e-01
v -3.750000000000e-01 0.000000000000e+00 3.125000000000e-01
v -4.375000000000e-01 0.000000000000e+00 3.125000000000e-01
v -2.500000000000e-01 0.000000000000e+00 3.750000000000e-01
v -3.125000000000e-01 0.000000000000e+00 3.750000000000e-01
v -3.750000000000e-01 0.000000000000e+00 3.750000000000e-01
v -4.375000000000e-01 0.000000000000e+00 3.750000000000e-01
v -1.875000000000e-01 0.000000000000e+00 2.500000000000e-01
v -2.500000000000e-01 0.000000000000e+00 1.875000000000e-01
v -3.750000000000e-01 0.000000000000e+00 2.500000000000e-01
v -3.125000000000e-01 0.000000000000e+00 2.500000000000e-01
v -2.500000000000e-01 0.000000000000e+00 2.500000000000e-01
v -4.375000000000e-01 0.000000000000e+00 4.375000000000e-01
v -3.750000000000e-01 0.000000000000e+00 4.375000000000e-01
v -1.875000000000e-01 0.000000000000e+00 3.125000000000e-01
v -2.500000000000e-01 0.000000000000e+00 3.125000000000e-01
v -3.125000000000e-01 0.000000000000e+00 3.125000000000e-01
v -6.250000000000e-02 0.000000000000e+00 -9.375000000000e-01
v -1.250000000000e-01 0.000000000000e+00 -1.000000000000e+00
v -6.250000000000e-02 0.000000000000e+00 -1.000000000000e+00
v -1.875000000000e-01 0.000000000000e+00 -8.750000000000e-01
v -1.250000000000e-01 0.000000000000e+00 -8.750000000000e-01
v -2.500000000000e-01 0.000000000000e+00 -9.375000000000e-01
v -6.250000000000e-02 0.000000000000e+00 -8.750000000000e-01
v -1.250000000000e-01 0.000000000000e+00 -8.125000000000e-01
v -3.125000000000e-01 0.000000000000e+00 -1.000000000000e+00
v -1.250000000000e-01 0.000000000000e+00 -9.375000000000e-01
v -3.125000000000e-01 0.000000000000e+00 -9.375000000000e-01
v -2.500000000000e-01 0.000000000000e+00 -1.000000000000e+00
v -1.875000000000e-01 0.000000000000e+00 -1.000000000000e+00
v -1.875000000000e-01 0.000000000000e+00 -8.125000000000e-01
v -1.875000000000e-01 0.000000000000e+00 -9.375000000000e-01
v -3.750000000000e-01 0.000000000000e+00 -6.250000000000e-01
v -3.125000000000e-01 0.000000000000e+00 -6.250000000000e-01
v -2.500000000000e-01 0.000000000000e+00 -6.250000000000e-01
v -2.500000000000e-01 0.000000000000e+00 -8.750000000000e-01
v -1.875000000000e-01 0.000000000000e+00 -7.500000000000e-01
v -3.750000000000e-01 0.000000000000e+00 -6.875000000000e-01
v -3.125000000000e-01 0.000000000000e+00 -8.750000000000e-01
v -2.500000000000e-01 0.000000000000e+00 -8.125000000000e-01
v -4.375000000000e-01 0.000000000000e+00 -6.250000000000e-01
v -3.750000000000e-01 0.000000000000e+00 -8.125000000000e-01
v -3.125000000000e-01 0.000000000000e+00 -8.125000000000e-01
v -3.125000000000e-01 0.000000000000e+00 -6.875000000000e-01
v -2.500000000000e-01 0.000000000000e+00 -6.875000000000e-01
v -3.750000000000e-01 0.000000000000e+00 -7.500000000000e-01
v -3.125000000000e-01 0.000000000000e+00 -7.500000000000e-01
v -2.500000000000e-01 0.000000000000e+00 -7.500000000000e-01
v 6.250000000000e-02 0.000000000000e+00 -7.500000000000e-01
v 6.250000000000e-02 0.000000000000e+00 -6.875000000000e-01
v 0.000000000000e+00 0.000000000000e+00 -6.250000000000e-01
v -6.250000000000e-02 0.000000000000e+00 -6.875000000000e-01
v -1.250000000000e-01 0.000000000000e+00 -7.500000000000e-01
v 0.000000000000e+00 0.000000000000e+00 -6.875000000000e-01
v 0.000000000000e+00 0.000000000000e+00 -5.625000000000e-01
v -6.250000000000e-02 0.000000000000e+00 -5.625000000000e-01
v -1.250000000000e-01 0.000000000000e+00 -5.625000000000e-01
v -1.875000000000e-01 0.000000000000e+00 -6.875000000000e-01
v -1.250000000000e-01 0.000000000000e+00 -6.250000000000e-01
v -6.250000000000e-02 0.000000000000e+00 -6.250000000000e-01
v -1.875000000000e-01 0.000000000000e+00 -6.250000000000e-01
v -1.250000000000e-01 0.000000000000e+00 -6.875000000000e-01
v -1.875000000000e-01 0.000000000000e+00 -5.625000000000e-01
v 1.250000000000e-01 0.000000000000e+00 -8.750000000000e-01
v 0.000000000000e+00 0.000000000000e+00 -8.125000000000e-01
v 1.250000000000e-01 0.000000000000e+00 -9.375000000000e-01
v 6.250000000000e-02 0.000000000000e+00 -9.375000000000e-01
v 0.000000000000e+00 0.000000000000e+00 -9.375000000000e-01
v 6.250000000000e-02 0.000000000000e+00 -1.000000000000e+00
v 6.250000000000e-02 0.000000000000e+00 -8.125000000000e-01
v 1.875000000000e-01 0.000000000000e+00 -1.000000000000e+00
v 6.250000000000e-02 0.000000000000e+00 -8.750000000000e-01
v 1.250000000000e-01 0.000000000000e+00 -1.000000000000e+00
v 0.000000000000e+00 0.000000000000e+00 -8.750000000000e-01
v 0.000000000000e+00 0.000000000000e+00 -1.000000000000e+00
v -6.250000000000e-02 0.000000000000e+00 -7.500000000000e-01
v 0.000000000000e+00 0.000000000000e+00 -7.500000000000e-01
v -6.250000000000e-02 0.000000000000e+00 -8.125000000000e-01
v -3.125000000000e-01 0.000000000000e+00 -2.500000000000e-01
v -4.375000000000e-01 0.000000000000e+00 -3.125000000000e-01
v -5.625000000000e-01 0.000000000000e+00 -1.250000000000e-01
v -5.000000000000e-01 0.000000000000e+00 -1.250000000000e-01
v -5.000000000000e-01 0.000000000000e+00 -1.875000000000e-01
v -3.750000000000e-01 0.000000000000e+00 -2.500000000000e-01
v -5.625000000000e-01 0.000000000000e+00 -1.875000000000e-01
v -3.750000000000e-01 0.000000000000e+00 -3.125000000000e-01
v -3.750000000000e-01 0.000000000000e+00 -1.875000000000e-01
v -4.375000000000e-01 0.000000000000e+00 -1.875000000000e-01
v -5.625000000000e-01 0.000000000000e+00 -6.250000000000e-02
v -5.000000000000e-01 0.000000000000e+00 -6.250000000000e-02
v -5.000000000000e-01 0.000000000000e+00 -2.500000000000e-01
v -4.375000000000e-01 0.000000000000e+00 -2.500000000000e-01
v -4.375000000000e-01 0.000000000000e+00 -1.250000000000e-01
v -4.375000000000e-01 0.000000000000e+00 -6.250000000000e-02
v -5.000000000000e-01 0.000000000000e+00 -3.750000000000e-01
v -4.375000000000e-01 0.000000000000e+00 -3.750000000000e-01
v -3.750000000000e-01 0.000000000000e+00 -3.750000000000e-01
v -5.000000000000e-01 0.000000000000e+00 -3.125000000000e-01
v -4.375000000000e-01 0.000000000000e+00 -5.625000000000e-01
v -3.750000000000e-01 0.000000000000e+00 -5.625000000000e-01
v -3.125000000000e-01 0.000000000000e+00 -5.625000000000e-01
v -2.500000000000e-01 0.000000000000e+00 -5.625000000000e-01
v -4.375000000000e-01 0.000000000000e+00 -5.000000000000e-01
v -3.750000000000e-01 0.000000000000e+00 -5.000000000000e-01
v -3.125000000000e-01 0.000000000000e+00 -5.000000000000e-01
v -2.500000000000e-01 0.000000000000e+00 -5.000000000000e-01
v -5.000000000000e-01 0.000000000000e+00 -4.375000000000e-01
v -4.375000000000e-01 0.000000000000e+00 -4.375000000000e-01
v -3.750000000000e-01 0.000000000000e+00 -4.375000000000e-01
v -3.125000000000e-01 0.000000000000e+00 -4.375000000000e-01
v -1.250000000000e-01 0.000000000000e+00 -5.000000000000e-01
v -1.875000000000e-01 0.000000000000e+00 -5.000000000000e-01
v 0.000000000000e+00 0.000000000000e+00 -5.000000000000e-01
v -2.500000000000e-01 0.000000000000e+00 -4.375000000000e-01
v -1.875000000000e-01 0.000000000000e+00 -4.375000000000e-01
v -1.250000000000e-01 0.000000000000e+00 -4.375000000000e-01
v -6.250000000000e-02 0.000000000000e+00 -4.375000000000e-01
v -3.125000000000e-01 0.000000000000e+00 -3.125000000000e-01
v 0.000000000000e+00 0.000000000000e+00 -4.375000000000e-01
v -2.500000000000e-01 0.000000000000e+00 -3.125000000000e-01
v -3.125000000000e-01 0.000000000000e+00 -3.750000000000e-01
v -6.250000000000e-02 0.000000000000e+00 -3.750000000000e-01
v -1.250000000000e-01 0.000000000000e+00 -3.750000000000e-01
v -6.250000000000e-02 0.000000000000e+00 -5.000000000000e-01
v -1.875000000000e-01 0.000000000000e+00 -3.750000000000e-01
v -2.500000000000e-01 0.000000000000e+00 -3.750000000000e-01
v -3.750000000000e-01 0.000000000000e+00 -1.250000000000e-01
v -1.875000000000e-01 0.000000000000e+00 -1.875000000000e-01
v -3.750000000000e-01 0.000000000000e+00 -6.250000000000e-02
v -1.250000000000e-01 0.000000000000e+00 -2.500000000000e-01
v -1.875000000000e-01 0.000000000000e+00 -2.500000000000e-01
v -6.250000000000e-02 0.000000000000e+00 -3.125000000000e-01
v -1.250000000000e-01 0.000000000000e+00 -3.125000000000e-01
v -1.875000000000e-01 0.000000000000e+00 -3.125000000000e-01
v -2.500000000000e-01 0.000000000000e+00 -2.500000000000e-01
v -2.500000000000e-01 0.000000000000e+00 -1.875000000000e-01
v -3.125000000000e-01 0.000000000000e+00 -1.250000000000e-01
v -2.500000000000e-01 0.000000000000e+00 -1.250000000000e-01
v -1.875000000000e-01 0.000000000000e+00 -1.250000000000e-01
v -3.125000000000e-01 0.000000000000e+00 -1.875000000000e-01
v -3.125000000000e-01 0.000000000000e+00 -6.250000000000e-02
v -1.250000000000e-01 0.000000000000e+00 -1.875000000000e-01
v -8.750000000000e-01 0.000000000000e+00 -1.250000000000e-01
v -7.500000000000e-01 0.000000000000e+00 -1.875000000000e-01
v -8.125000000000e-01 0.000000000000e+00 -1.250000000000e-01
v -7.500000000000e-01 0.000000000000e+00 -1.250000000000e-01
v -6.875000000000e-01 0.000000000000e+00 -1.250000000000e-01
v -6.250000000000e-01 0.000000000000e+00 -1.250000000000e-01
v -7.500000000000e-01 0.000000000000e+00 -2.500000000000e-01
v -6.250000000000e-01 0.000000000000e+00 -1.875000000000e-01
v -8.125000000000e-01 0.000000000000e+00 -1.875000000000e-01
v -8.750000000000e-01 0.000000000000e+00 -6.250000000000e-02
v -8.125000000000e-01 0.000000000000e+00 -6.250000000000e-02
v -7.500000000000e-01 0.000000000000e+00 -6.250000000000e-02
v -6.875000000000e-01 0.000000000000e+00 -6.250000000000e-02
v -6.875000000000e-01 0.000000000000e+00 -1.875000000000e-01
v -6.250000000000e-01 0.000000000000e+00 -6.250000000000e-02
v -5.000000000000e-01 0.000000000000e+00 -5.000000000000e-01
v -5.000000000000e-01 0.000000000000e+00 -5.625000000000e-01
v -6.250000000000e-01 0.000000000000e+00 -3.750000000000e-01
v -6.875000000000e-01 0.000000000000e+00 -3.750000000000e-01
v -5.625000000000e-01 0.000000000000e+00 -2.500000000000e-01
v -6.250000000000e-01 0.000000000000e+00 -2.500000000000e-01
v -5.625000000000e-01 0.000000000000e+00 -5.625000000000e-01
v -6.875000000000e-01 0.000000000000e+00 -2.500000000000e-01
v -5.625000000000e-01 0.000000000000e+00 -5.000000000000e-01
v -5.625000000000e-01 0.000000000000e+00 -3.125000000000e-01
v -6.250000000000e-01 0.000000000000e+00 -5.000000000000e-01
v -5.625000000000e-01 0.000000000000e+00 -3.750000000000e-01
v -6.250000000000e-01 0.000000000000e+00 -3.125000000000e-01
v -6.875000000000e-01 0.000000000000e+00 -3.125000000000e-01
v -6.250000000000e-01 0.000000000000e+00 -4.375000000000e-01
v -5.625000000000e-01 0.000000000000e+00 -4.375000000000e-01
v -7.500000000000e-01 0.000000000000e+00 -3.750000000000e-01
v -8.125000000000e-01 0.000000000000e+00 -3.750000000000e-01
v -8.750000000000e-01 0.000000000000e+00 -3.750000000000e-01
v -9.375000000000e-01 0.000000000000e+00 -3.750000000000e-01
v -1.000000000000e+00 0.000000000000e+00 -3.750000000000e-01
v -8.750000000000e-01 0.000000000000e+00 -5.000000000000e-01
v -1.000000000000e+00 0.000000000000e+00 -4.375000000000e-01
v -9.375000000000e-01 0.000000000000e+00 -4.375000000000e-01
v -8.750000000000e-01 0.000000000000e+00 -4.375000000000e-01
v -8.125000000000e-01 0.000000000000e+00 -5.000000000000e-01
v -7.500000000000e-01 0.000000000000e+00 -5.000000000000e-01
v -6.875000000000e-01 0.000000000000e+00 -5.000000000000e-01
v -8.125000000000e-01 0.000000000000e+00 -4.375000000000e-01
v -7.500000000000e-01 0.000000000000e+00 -4.375000000000e-01
v -6.875000000000e-01 0.000000000000e+00 -4.375000000000e-01
v -9.375000000000e-01 0.000000000000e+00 -5.000000000000e-01
v -9.375000000000e-01 0.000000000000e+00 -2.500000000000e-01
v -1.000000000000e+00 0.000000000000e+00 -3.125000000000e-01
v -9.375000000000e-01 0.000000000000e+00 -3.125000000000e-01
v -8.750000000000e-01 0.000000000000e+00 -3.125000000000e-01
v -8.125000000000e-01 0.000000000000e+00 -3.125000000000e-01
v -7.500000000000e-01 0.000000000000e+00 -3.125000000000e-01
v -8.125000000000e-01 0.000000000000e+00 -2.500000000000e-01
v -8.750000000000e-01 0.000000000000e+00 -1.875000000000e-01
v -9.375000000000e-01 0.000000000000e+00 -1.875000000000e-01
v -1.000000000000e+00 0.000000000000e+00 -1.875000000000e-01
v -1.000000000000e+00 0.000000000000e+00 -2.500000000000e-01
v -1.000000000000e+00 0.000000000000e+00 -1.250000000000e-01
v -9.375000000000e-01 0.000000000000e+00 -1.250000000000e-01
v -8.750000000000e-01 0.000000000000e+00 -2.500000000000e-01
v -1.000000000000e+00 0.000000000000e+00 -6.250000000000e-02
v -9.375000000000e-01 0.000000000000e+00 -6.250000000000e-02
v -4.375000000000e-01 0.000000000000e+00 -8.125000000000e-01
v -5.625000000000e-01 0.000000000000e+00 -8.750000000000e-01
v -5.000000000000e-01 0.000000000000e+00 -8.750000000000e-01
v -4.375000000000e-01 0.000000000000e+00 -8.750000000000e-01
v -3.750000000000e-01 0.000000000000e+00 -8.750000000000e-01
v -3.750000000000e-01 0.000000000000e+00 -1.000000000000e+00
v -4.375000000000e-01 0.000000000000e+00 -1.000000000000e+00
v -5.000000000000e-01 0.000000000000e+00 -1.000000000000e+00
v -5.625000000000e-01 0.000000000000e+00 -1.000000000000e+00
v -5.625000000000e-01 0.000000000000e+00 -8.125000000000e-01
v -5.000000000000e-01 0.000000000000e+00 -8.125000000000e-01
v -5.000000000000e-01 0.000000000000e+00 -9.375000000000e-01
v -4.375000000000e-01 0.000000000000e+00 -9.375000000000e-01
v -3.750000000000e-01 0.000000000000e+00 -9.375000000000e-01
v -5.625000000000e-01 0.000000000000e+00 -9.375000000000e-01
v -6.250000000000e-01 0.000000000000e+00 -7.500000000000e-01
v -7.500000000000e-01 0.000000000000e+00 -5.625000000000e-01
v -5.000000000000e-01 0.000000000000e+00 -6.875000000000e-01
v -5.625000000000e-01 0.000000000000e+00 -6.875000000000e-01
v -4.375000000000e-01 0.000000000000e+00 -7.500000000000e-01
v -5.000000000000e-01 0.000000000000e+00 -6.250000000000e-01
v -5.625000000000e-01 0.000000000000e+00 -7.500000000000e-01
v -6.250000000000e-01 0.000000000000e+00 -6.875000000000e-01
v -5.625000000000e-01 0.000000000000e+00 -6.250000000000e-01
v -6.875000000000e-01 0.000000000000e+00 -5.625000000000e-01
v -6.250000000000e-01 0.000000000000e+00 -5.625000000000e-01
v -6.875000000000e-01 0.000000000000e+00 -6.875000000000e-01
v -5.000000000000e-01 0.000000000000e+00 -7.500000000000e-01
v -6.250000000000e-01 0.000000000000e+00 -6.250000000000e-01
v -6.875000000000e-01 0.000000000000e+00 -6.250000000000e-01
v -7.500000000000e-01 0.000000000000e+00 -6.250000000000e-01
v -4.375000000000e-01 0.000000000000e+00 -6.875000000000e-01
v -1.000000000000e+00 0.000000000000e+00 -8.750000000000e-01
v -1.000000000000e+00 0.000000000000e+00 -1.000000000000e+00
v -8.125000000000e-01 0.000000000000e+00 -8.750000000000e-01
v -8.125000000000e-01 0.000000000000e+00 -9.375000000000e-01
v -8.750000000000e-01 0.000000000000e+00 -9.375000000000e-01
v -9.375000000000e-01 0.000000000000e+00 -9.375000000000e-01
v -1.000000000000e+00 0.000000000000e+00 -9.375000000000e-01
v -7.500000000000e-01 0.000000000000e+00 -1.000000000000e+00
v -8.125000000000e-01 0.000000000000e+00 -1.000000000000e+00
v -8.750000000000e-01 0.000000000000e+00 -1.000000000000e+00
v -9.375000000000e-01 0.000000000000e+00 -1.000000000000e+00
v -9.375000000000e-01 0.000000000000e+00 -8.750000000000e-01
v -8.750000000000e-01 0.000000000000e+00 -8.750000000000e-01
v -1.000000000000e+00 0.000000000000e+00 -8.125000000000e-01
v -9.375000000000e-01 0.000000000000e+00 -8.125000000000e-01
v -8.750000000000e-01 0.000000000000e+00 -8.125000000000e-01
v -7.500000000000e-01 0.000000000000e+00 -8.750000000000e-01
v -6.875000000000e-01 0.000000000000e+00 -8.750000000000e-01
v -8.125000000000e-01 0.000000000000e+00 -8.125000000000e-01
v -7.500000000000e-01 0.000000000000e+00 -7.500000000000e-01
v -7.500000000000e-01 0.000000000000e+00 -6.875000000000e-01
v -6.875000000000e-01 0.000000000000e+00 -7.500000000000e-01
v -6.250000000000e-01 0.000000000000e+00 -8.750000000000e-01
v -6.250000000000e-01 0.000000000000e+00 -8.125000000000e-01
v -6.875000000000e-01 0.000000000000e+00 -8.125000000000e-01
v -8.125000000000e-01 0.000000000000e+00 -7.500000000000e-01
v -6.250000000000e-01 0.000000000000e+00 -1.000000000000e+00
v -7.500000000000e-01 0.000000000000e+00 -9.375000000000e-01
v -7.500000000000e-01 0.000000000000e+00 -8.125000000000e-01
v -6.875000000000e-01 0.000000000000e+00 -9.375000000000e-01
v -6.250000000000e-01 0.000000000000e+00 -9.375000000000e-01
v -6.875000000000e-01 0.000000000000e+00 -1.000000000000e+00
v -1.000000000000e+00 0.000000000000e+00 -5.625000000000e-01
v -9.375000000000e-01 0.000000000000e+00 -7.500000000000e-01
v -8.750000000000e-01 0.000000000000e+00 -7.500000000000e-01
v -1.000000000000e+00 0.000000000000e+00 -7.500000000000e-01
v -1.000000000000e+00 0.000000000000e+00 -5.000000000000e-01
v -1.000000000000e+00 0.000000000000e+00 -6.875000000000e-01
v -8.750000000000e-01 0.000000000000e+00 -6.875000000000e-01
v -8.125000000000e-01 0.000000000000e+00 -6.875000000000e-01
v -9.375000000000e-01 0.000000000000e+00 -6.875000000000e-01
v -1.000000000000e+00 0.000000000000e+00 -6.250000000000e-01
v -9.375000000000e-01 0.000000000000e+00 -6.250000000000e-01
v -8.750000000000e-01 0.000000000000e+00 -6.250000000000e-01
v -8.125000000000e-01 0.000000000000e+00 -6.250000000000e-01
v -8.125000000000e-01 0.000000000000e+00 -5.625000000000e-01
v -8.750000000000e-01 0.000000000000e+00 -5.625000000000e-01
v -9.375000000000e-01 0.000000000000e+00 -5.625000000000e-01
v 5.000000000000e-01 0.000000000000e+00 -1.250000000000e-01
v 5.000000000000e-01 0.000000000000e+00 -6.250000000000e-02
v 5.625000000000e-01 0.000000000000e+00 -6.250000000000e-02
v 6.250000000000e-01 0.000000000000e+00 -6.250000000000e-02
v 5.625000000000e-01 0.000000000000e+00 -2.500000000000e-01
v 6.250000000000e-01 0.000000000000e+00 -2.500000000000e-01
v 5.000000000000e-01 0.000000000000e+00 -1.875000000000e-01
v 5.625000000000e-01 0.000000000000e+00 -1.875000000000e-01
v 6.250000000000e-01 0.000000000000e+00 -1.875000000000e-01
v 6.875000000000e-01 0.000000000000e+00 -2.500000000000e-01
v 6.250000000000e-01 0.000000000000e+00 -3.125000000000e-01
v 6.875000000000e-01 0.000000000000e+00 -3.125000000000e-01
v 5.625000000000e-01 0.000000000000e+00 0.000000000000e+00
v 6.250000000000e-01 0.000000000000e+00 -1.250000000000e-01
v 5.625000000000e-01 0.000000000000e+00 -1.250000000000e-01
v 5.000000000000e-01 0.000000000000e+00 -2.500000000000e-01
v 6.875000000000e-01 0.000000000000e+00 -5.000000000000e-01
v 7.500000000000e-01 0.000000000000e+00 -5.000000000000e-01
v 5.000000000000e-01 0.000000000000e+00 -4.375000000000e-01
v 5.625000000000e-01 0.000000000000e+00 -4.375000000000e-01
v 6.250000000000e-01 0.000000000000e+00 -4.375000000000e-01
v 6.875000000000e-01 0.000000000000e+00 -4.375000000000e-01
v 7.500000000000e-01 0.000000000000e+00 -4.375000000000e-01
v 5.000000000000e-01 0.000000000000e+00 -3.750000000000e-01
v 5.625000000000e-01 0.000000000000e+00 -3.750000000000e-01
v 6.250000000000e-01 0.000000000000e+00 -3.750000000000e-01
v 6.875000000000e-01 0.000000000000e+00 -3.750000000000e-01
v 5.000000000000e-01 0.000000000000e+00 -3.125000000000e-01
v 5.625000000000e-01 0.000000000000e+00 -3.125000000000e-01
v 5.000000000000e-01 0.000000000000e+00 -5.000000000000e-01
v 5.625000000000e-01 0.000000000000e+00 -5.000000000000e-01
v 6.250000000000e-01 0.000000000000e+00 -5.000000000000e-01
v 1.000000000000e+00 0.000000000000e+00 -3.750000000000e-01
v 7.500000000000e-01 0.000000000000e+00 -1.250000000000e-01
v 8.750000000000e-01 0.000000000000e+00 -1.875000000000e-01
v 8.125000000000e-01 0.000000000000e+00 -1.875000000000e-01
v 6.875000000000e-01 0.000000000000e+00 -1.250000000000e-01
v 8.125000000000e-01 0.000000000000e+00 -1.250000000000e-01
v 8.750000000000e-01 0.000000000000e+00 -2.500000000000e-01
v 9.375000000000e-01 0.000000000000e+00 -2.500000000000e-01
v 1.000000000000e+00 0.000000000000e+00 -2.500000000000e-01
v 7.500000000000e-01 0.000000000000e+00 -1.875000000000e-01
v 6.875000000000e-01 0.000000000000e+00 -1.875000000000e-01
v 7.500000000000e-01 0.000000000000e+00 -2.500000000000e-01
v 8.125000000000e-01 0.000000000000e+00 -2.500000000000e-01
v 1.000000000000e+00 0.000000000000e+00 -3.125000000000e-01
v 9.375000000000e-01 0.000000000000e+00 -3.125000000000e-01
v 8.750000000000e-01 0.000000000000e+00 -4.375000000000e-01
v 9.375000000000e-01 0.000000000000e+00 -4.375000000000e-01
v 8.125000000000e-01 0.000000000000e+00 -4.375000000000e-01
v 1.000000000000e+00 0.000000000000e+00 -4.375000000000e-01
v 8.125000000000e-01 0.000000000000e+00 -5.000000000000e-01
v 8.125000000000e-01 0.000000000000e+00 -3.750000000000e-01
v 7.500000000000e-01 0.000000000000e+00 -3.125000000000e-01
v 8.750000000000e-01 0.000000000000e+00 -5.000000000000e-01
v 8.125000000000e-01 0.000000000000e+00 -3.125000000000e-01
v 8.750000000000e-01 0.000000000000e+00 -3.125000000000e-01
v 9.375000000000e-01 0.000000000000e+00 -5.000000000000e-01
v 1.000000000000e+00 0.000000000000e+00 -5.000000000000e-01
v 7.500000000000e-01 0.000000000000e+00 -3.750000000000e-01
v 8.750000000000e-01 0.000000000000e+00 -3.750000000000e-01
v 9.375000000000e-01 0.000000000000e+00 -3.750000000000e-01
v 1.000000000000e+00 0.000000000000e+00 -5.625000000000e-01
v 5.625000000000e-01 0.000000000000e+00 -6.250000000000e-01
v 5.625000000000e-01 0.000000000000e+00 -5.625000000000e-01
v 5.625000000000e-01 0.000000000000e+00 -6.875000000000e-01
v 6.250000000000e-01 0.000000000000e+00 -6.875000000000e-01
v 5.625000000000e-01 0.000000000000e+00 -7.500000000000e-01
v 5.000000000000e-01 0.000000000000e+00 -6.250000000000e-01
v 6.250000000000e-01 0.000000000000e+00 -5.625000000000e-01
v 6.250000000000e-01 0.000000000000e+00 -7.500000000000e-01
v 6.875000000000e-01 0.000000000000e+00 -6.875000000000e-01
v 6.875000000000e-01 0.000000000000e+00 -7.500000000000e-01
v 7.500000000000e-01 0.000000000000e+00 -7.500000000000e-01
v 7.500000000000e-01 0.000000000000e+00 -6.875000000000e-01
v 5.000000000000e-01 0.000000000000e+00 -6.875000000000e-01
v 6.875000000000e-01 0.000000000000e+00 -6.250000000000e-01
v 5.000000000000e-01 0.000000000000e+00 -5.625000000000e-01
v 6.250000000000e-01 0.000000000000e+00 -6.250000000000e-01
v 6.875000000000e-01 0.000000000000e+00 -9.375000000000e-01
v 6.250000000000e-01 0.000000000000e+00 -9.375000000000e-01
v 7.500000000000e-01 0.000000000000e+00 -1.000000000000e+00
v 5.625000000000e-01 0.000000000000e+00 -8.125000000000e-01
v 6.250000000000e-01 0.000000000000e+00 -1.000000000000e+00
v 7.500000000000e-01 0.000000000000e+00 -8.125000000000e-01
v 5.000000000000e-01 0.000000000000e+00 -7.500000000000e-01
v 6.250000000000e-01 0.000000000000e+00 -8.125000000000e-01
v 6.875000000000e-01 0.000000000000e+00 -1.000000000000e+00
v 6.875000000000e-01 0.000000000000e+00 -8.750000000000e-01
v 8.125000000000e-01 0.000000000000e+00 -9.375000000000e-01
v 7.500000000000e-01 0.000000000000e+00 -9.375000000000e-01
v 8.125000000000e-01 0.000000000000e+00 -1.000000000000e+00
v 7.500000000000e-01 0.000000000000e+00 -8.750000000000e-01
v 6.250000000000e-01 0.000000000000e+00 -8.750000000000e-01
v 6.875000000000e-01 0.000000000000e+00 -8.125000000000e-01
v 9.375000000000e-01 0.000000000000e+00 -8.750000000000e-01
v 8.125000000000e-01 0.000000000000e+00 -8.750000000000e-01
v 1.000000000000e+00 0.000000000000e+00 -9.375000000000e-01
v 9.375000000000e-01 0.000000000000e+00 -9.375000000000e-01
v 1.000000000000e+00 0.000000000000e+00 -1.000000000000e+00
v 9.375000000000e-01 0.000000000000e+00 -1.000000000000e+00
v 8.750000000000e-01 0.000000000000e+00 -1.000000000000e+00
v 8.750000000000e-01 0.000000000000e+00 -8.750000000000e-01
v 8.750000000000e-01 0.000000000000e+00 -9.375000000000e-01
v 8.750000000000e-01 0.000000000000e+00 -7.500000000000e-01
v 8.125000000000e-01 0.000000000000e+00 -7.500000000000e-01
v 1.000000000000e+00 0.000000000000e+00 -8.125000000000e-01
v 9.375000000000e-01 0.000000000000e+00 -8.125000000000e-01
v 8.750000000000e-01 0.000000000000e+00 -8.125000000000e-01
v 8.125000000000e-01 0.000000000000e+00 -8.125000000000e-01
v 1.000000000000e+00 0.000000000000e+00 -8.750000000000e-01
v 8.125000000000e-01 0.000000000000e+00 -6.250000000000e-01
v 7.500000000000e-01 0.000000000000e+00 -5.625000000000e-01
v 7.500000000000e-01 0.000000000000e+00 -6.250000000000e-01
v 8.750000000000e-01 0.000000000000e+00 -6.875000000000e-01
v 9.375000000000e-01 0.000000000000e+00 -7.500000000000e-01
v 1.000000000000e+00 0.000000000000e+00 -7.500000000000e-01
v 8.125000000000e-01 0.000000000000e+00 -6.875000000000e-01
v 1.000000000000e+00 0.000000000000e+00 -6.875000000000e-01
v 9.375000000000e-01 0.000000000000e+00 -6.875000000000e-01
v 9.375000000000e-01 0.000000000000e+00 -5.625000000000e-01
v 8.750000000000e-01 0.000000000000e+00 -5.625000000000e-01
v 8.125000000000e-01 0.000000000000e+00 -5.625000000000e-01
v 1.000000000000e+00 0.000000000000e+00 -6.250000000000e-01
v 6.875000000000e-01 0.000000000000e+00 -5.625000000000e-01
v 8.750000000000e-01 0.000000000000e+00 -6.250000000000e-01
v 9.375000000000e-01 0.000000000000e+00 -6.250000000000e-01
v 6.250000000000e-02 0.000000000000e+00 -5.000000000000e-01
v 6.250000000000e-02 0.000000000000e+00 -4.375000000000e-01
v 1.250000000000e-01 0.000000000000e+00 -4.375000000000e-01
v 1.875000000000e-01 0.000000000000e+00 -6.875000000000e-01
v 1.875000000000e-01 0.000000000000e+00 -5.000000000000e-01
v 1.250000000000e-01 0.000000000000e+00 -6.875000000000e-01
v 2.500000000000e-01 0.000000000000e+00 -5.625000000000e-01
v 1.875000000000e-01 0.000000000000e+00 -5.625000000000e-01
v 1.875000000000e-01 0.000000000000e+00 -6.250000000000e-01
v 1.250000000000e-01 0.000000000000e+00 -6.250000000000e-01
v 6.250000000000e-02 0.000000000000e+00 -6.250000000000e-01
v 1.250000000000e-01 0.000000000000e+00 -5.625000000000e-01
v 6.250000000000e-02 0.000000000000e+00 -5.625000000000e-01
v 1.250000000000e-01 0.000000000000e+00 -5.000000000000e-01
v 2.500000000000e-01 0.000000000000e+00 -5.000000000000e-01
v 1.875000000000e-01 0.000000000000e+00 -4.375000000000e-01
v 4.375000000000e-01 0.000000000000e+00 -7.500000000000e-01
v 3.750000000000e-01 0.000000000000e+00 -7.500000000000e-01
v 4.375000000000e-01 0.000000000000e+00 -5.625000000000e-01
v 3.750000000000e-01 0.000000000000e+00 -6.250000000000e-01
v 3.750000000000e-01 0.000000000000e+00 -5.625000000000e-01
v 3.125000000000e-01 0.000000000000e+00 -6.250000000000e-01
v 3.125000000000e-01 0.000000000000e+00 -5.625000000000e-01
v 4.375000000000e-01 0.000000000000e+00 -6.875000000000e-01
v 3.125000000000e-01 0.000000000000e+00 -5.000000000000e-01
v 3.750000000000e-01 0.000000000000e+00 -6.875000000000e-01
v 3.750000000000e-01 0.000000000000e+00 -5.000000000000e-01
v 3.125000000000e-01 0.000000000000e+00 -6.875000000000e-01
v 2.500000000000e-01 0.000000000000e+00 -6.250000000000e-01
v 2.500000000000e-01 0.000000000000e+00 -6.875000000000e-01
v 4.375000000000e-01 0.000000000000e+00 -6.250000000000e-01
v 4.375000000000e-01 0.000000000000e+00 -5.000000000000e-01
v 4.375000000000e-01 0.000000000000e+00 -9.375000000000e-01
v 3.750000000000e-01 0.000000000000e+00 -8.125000000000e-01
v 5.000000000000e-01 0.000000000000e+00 -9.375000000000e-01
v 5.625000000000e-01 0.000000000000e+00 -9.375000000000e-01
v 3.750000000000e-01 0.000000000000e+00 -9.375000000000e-01
v 4.375000000000e-01 0.000000000000e+00 -1.000000000000e+00
v 5.000000000000e-01 0.000000000000e+00 -1.000000000000e+00
v 3.750000000000e-01 0.000000000000e+00 -1.000000000000e+00
v 5.625000000000e-01 0.000000000000e+00 -8.750000000000e-01
v 5.000000000000e-01 0.000000000000e+00 -8.750000000000e-01
v 4.375000000000e-01 0.000000000000e+00 -8.750000000000e-01
v 3.750000000000e-01 0.000000000000e+00 -8.750000000000e-01
v 5.625000000000e-01 0.000000000000e+00 -1.000000000000e+00
v 5.000000000000e-01 0.000000000000e+00 -8.125000000000e-01
v 4.375000000000e-01 0.000000000000e+00 -8.125000000000e-01
v 2.500000000000e-01 0.000000000000e+00 -9.375000000000e-01
v 1.875000000000e-01 0.000000000000e+00 -9.375000000000e-01
v 3.125000000000e-01 0.000000000000e+00 -7.500000000000e-01
v 3.125000000000e-01 0.000000000000e+00 -1.000000000000e+00
v 2.500000000000e-01 0.000000000000e+00 -7.500000000000e-01
v 1.875000000000e-01 0.000000000000e+00 -7.500000000000e-01
v 1.250000000000e-01 0.000000000000e+00 -7.500000000000e-01
v 2.500000000000e-01 0.000000000000e+00 -1.000000000000e+00
v 3.125000000000e-01 0.000000000000e+00 -9.375000000000e-01
v 3.125000000000e-01 0.000000000000e+00 -8.125000000000e-01
v 3.125000000000e-01 0.000000000000e+00 -8.750000000000e-01
v 2.500000000000e-01 0.000000000000e+00 -8.750000000000e-01
v 1.875000000000e-01 0.000000000000e+00 -8.750000000000e-01
v 2.500000000000e-01 0.000000000000e+00 -8.125000000000e-01
v 1.875000000000e-01 0.000000000000e+00 -8.125000000000e-01
v 1.250000000000e-01 0.000000000000e+00 -8.125000000000e-01
v 3.750000000000e-01 0.000000000000e+00 6.250000000000e-02
v 4.375000000000e-01 0.000000000000e+00 -1.250000000000e-01
v 4.375000000000e-01 0.000000000000e+00 0.000000000000e+00
v 3.750000000000e-01 0.000000000000e+00 0.000000000000e+00
v 3.125000000000e-01 0.000000000000e+00 0.000000000000e+00
v 4.375000000000e-01 0.000000000000e+00 -1.875000000000e-01
v 3.750000000000e-01 0.000000000000e+00 -1.875000000000e-01
v 3.750000000000e-01 0.000000000000e+00 -6.250000000000e-02
v 3.125000000000e-01 0.000000000000e+00 -6.250000000000e-02
v 3.750000000000e-01 0.000000000000e+00 -1.250000000000e-01
v 2.500000000000e-01 0.000000000000e+00 1.250000000000e-01
v 3.125000000000e-01 0.000000000000e+00 6.250000000000e-02
v 3.125000000000e-01 0.000000000000e+00 -1.250000000000e-01
v 3.125000000000e-01 0.000000000000e+00 1.250000000000e-01
v 4.375000000000e-01 0.000000000000e+00 -2.500000000000e-01
v 4.375000000000e-01 0.000000000000e+00 -6.250000000000e-02
v 1.875000000000e-01 0.000000000000e+00 0.000000000000e+00
v 1.250000000000e-01 0.000000000000e+00 0.000000000000e+00
v 1.250000000000e-01 0.000000000000e+00 1.875000000000e-01
v 6.250000000000e-02 0.000000000000e+00 1.875000000000e-01
v 0.000000000000e+00 0.000000000000e+00 1.875000000000e-01
v 6.250000000000e-02 0.000000000000e+00 1.250000000000e-01
v 2.500000000000e-01 0.000000000000e+00 6.250000000000e-02
v 1.875000000000e-01 0.000000000000e+00 6.250000000000e-02
v 1.250000000000e-01 0.000000000000e+00 6.250000000000e-02
v 0.000000000000e+00 0.000000000000e+00 1.250000000000e-01
v 1.250000000000e-01 0.000000000000e+00 1.250000000000e-01
v 1.875000000000e-01 0.000000000000e+00 1.250000000000e-01
v 6.250000000000e-02 0.000000000000e+00 6.250000000000e-02
v 2.500000000000e-01 0.000000000000e+00 -6.250000000000e-02
v 2.500000000000e-01 0.000000000000e+00 0.000000000000e+00
v 1.875000000000e-01 0.000000000000e+00 -6.250000000000e-02
v 0.000000000000e+00 0.000000000000e+00 -1.250000000000e-01
v 1.250000000000e-01 0.000000000000e+00 -2.500000000000e-01
v -6.250000000000e-02 0.000000000000e+00 -1.875000000000e-01
v 6.250000000000e-02 0.000000000000e+00 -1.875000000000e-01
v -6.250000000000e-02 0.000000000000e+00 -2.500000000000e-01
v -6.250000000000e-02 0.000000000000e+00 -6.250000000000e-02
v 0.000000000000e+00 0.000000000000e+00 -3.750000000000e-01
v 1.250000000000e-01 0.000000000000e+00 -3.750000000000e-01
v 1.250000000000e-01 0.000000000000e+00 -3.125000000000e-01
v 0.000000000000e+00 0.000000000000e+00 -1.875000000000e-01
v 0.000000000000e+00 0.000000000000e+00 -2.500000000000e-01
v 6.250000000000e-02 0.000000000000e+00 -3.125000000000e-01
v 0.000000000000e+00 0.000000000000e+00 -3.125000000000e-01
v 6.250000000000e-02 0.000000000000e+00 -2.500000000000e-01
v 6.250000000000e-02 0.000000000000e+00 -3.750000000000e-01
v -6.250000000000e-02 0.000000000000e+00 -1.250000000000e-01
v 1.875000000000e-01 0.000000000000e+00 -1.875000000000e-01
v 2.500000000000e-01 0.000000000000e+00 -1.875000000000e-01
v 3.125000000000e-01 0.000000000000e+00 -1.875000000000e-01
v 6.250000000000e-02 0.000000000000e+00 -1.250000000000e-01
v 1.250000000000e-01 0.000000000000e+00 -1.250000000000e-01
v 1.875000000000e-01 0.000000000000e+00 -1.250000000000e-01
v 2.500000000000e-01 0.000000000000e+00 -1.250000000000e-01
v 0.000000000000e+00 0.000000000000e+00 -6.250000000000e-02
v 6.250000000000e-02 0.000000000000e+00 -6.250000000000e-02
v 1.250000000000e-01 0.000000000000e+00 -6.250000000000e-02
v 0.000000000000e+00 0.000000000000e+00 0.000000000000e+00
v 6.250000000000e-02 0.000000000000e+00 0.000000000000e+00
v 0.000000000000e+00 0.000000000000e+00 6.250000000000e-02
v 1.875000000000e-01 0.000000000000e+00 -2.500000000000e-01
v 2.500000000000e-01 0.000000000000e+00 -2.500000000000e-01
v 1.250000000000e-01 0.000000000000e+00 -1.875000000000e-01
v 1.875000000000e-01 0.000000000000e+00 -3.750000000000e-01
v 2.500000000000e-01 0.000000000000e+00 -3.125000000000e-01
v 1.875000000000e-01 0.000000000000e+00 -3.125000000000e-01
v 3.125000000000e-01 0.000000000000e+00 -3.125000000000e-01
v 3.750000000000e-01 0.000000000000e+00 -3.125000000000e-01
v 4.375000000000e-01 0.000000000000e+00 -3.125000000000e-01
v 4.375000000000e-01 0.000000000000e+00 -4.375000000000e-01
v 3.750000000000e-01 0.000000000000e+00 -4.375000000000e-01
v 3.125000000000e-01 0.000000000000e+00 -4.375000000000e-01
v 2.500000000000e-01 0.000000000000e+00 -3.750000000000e-01
v 3.125000000000e-01 0.000000000000e+00 -3.750000000000e-01
v 3.750000000000e-01 0.000000000000e+00 -3.750000000000e-01
v 4.375000000000e-01 0.000000000000e+00 -3.750000000000e-01
v 2.500000000000e-01 0.000000000000e+00 -4.375000000000e-01
v 3.125000000000e-01 0.000000000000e+00 -2.500000000000e-01
v 3.750000000000e-01 0.000000000000e+00 -2.500000000000e-01
v 6.250000000000e-01 0.000000000000e+00 1.250000000000e-01
v 6.250000000000e-01 0.000000000000e+00 6.250000000000e-02
v 6.875000000000e-01 0.000000000000e+00 0.000000000000e+00
v 7.500000000000e-01 0.000000000000e+00 0.000000000000e+00
v 6.875000000000e-01 0.000000000000e+00 6.250000000000e-02
v 8.125000000000e-01 0.000000000000e+00 6.250000000000e-02
v 7.500000000000e-01 0.000000000000e+00 6.250000000000e-02
v 8.125000000000e-01 0.000000000000e+00 -6.250000000000e-02
v 7.500000000000e-01 0.000000000000e+00 -6.250000000000e-02
v 6.875000000000e-01 0.000000000000e+00 -6.250000000000e-02
v 8.125000000000e-01 0.000000000000e+00 0.000000000000e+00
v 6.250000000000e-01 0.000000000000e+00 0.000000000000e+00
v 6.875000000000e-01 0.000000000000e+00 1.250000000000e-01
v 7.500000000000e-01 0.000000000000e+00 1.250000000000e-01
v 8.125000000000e-01 0.000000000000e+00 1.250000000000e-01
v 9.375000000000e-01 0.000000000000e+00 0.000000000000e+00
v 1.000000000000e+00 0.000000000000e+00 0.000000000000e+00
v 8.750000000000e-01 0.000000000000e+00 -6.250000000000e-02
v 1.000000000000e+00 0.000000000000e+00 -1.875000000000e-01
v 8.750000000000e-01 0.000000000000e+00 1.250000000000e-01
v 1.000000000000e+00 0.000000000000e+00 -6.250000000000e-02
v 9.375000000000e-01 0.000000000000e+00 -1.250000000000e-01
v 8.750000000000e-01 0.000000000000e+00 6.250000000000e-02
v 9.375000000000e-01 0.000000000000e+00 6.250000000000e-02
v 1.000000000000e+00 0.000000000000e+00 6.250000000000e-02
v 1.000000000000e+00 0.000000000000e+00 -1.250000000000e-01
v 8.750000000000e-01 0.000000000000e+00 -1.250000000000e-01
v 9.375000000000e-01 0.000000000000e+00 -1.875000000000e-01
v 9.375000000000e-01 0.000000000000e+00 -6.250000000000e-02
v 8.750000000000e-01 0.000000000000e+00 0.000000000000e+00
v 1.000000000000e+00 0.000000000000e+00 1.875000000000e-01
v 1.000000000000e+00 0.000000000000e+00 1.250000000000e-01
v 9.375000000000e-01 0.000000000000e+00 2.500000000000e-01
v 8.750000000000e-01 0.000000000000e+00 2.500000000000e-01
v 8.750000000000e-01 0.000000000000e+00 1.875000000000e-01
v 9.375000000000e-01 0.000000000000e+00 1.875000000000e-01
v 8.125000000000e-01 0.000000000000e+00 4.375000000000e-01
v 8.750000000000e-01 0.000000000000e+00 3.750000000000e-01
v 1.000000000000e+00 0.000000000000e+00 3.125000000000e-01
v 8.125000000000e-01 0.000000000000e+00 2.500000000000e-01
v 1.000000000000e+00 0.000000000000e+00 2.500000000000e-01
v 9.375000000000e-01 0.000000000000e+00 3.125000000000e-01
v 9.375000000000e-01 0.000000000000e+00 1.250000000000e-01
v 8.125000000000e-01 0.000000000000e+00 3.750000000000e-01
v 8.750000000000e-01 0.000000000000e+00 3.125000000000e-01
v 8.125000000000e-01 0.000000000000e+00 3.125000000000e-01
v 6.875000000000e-01 0.000000000000e+00 4.375000000000e-01
v 6.875000000000e-01 0.000000000000e+00 3.750000000000e-01
v 6.250000000000e-01 0.000000000000e+00 1.875000000000e-01
v 6.250000000000e-01 0.000000000000e+00 4.375000000000e-01
v 7.500000000000e-01 0.000000000000e+00 2.500000000000e-01
v 6.250000000000e-01 0.000000000000e+00 3.125000000000e-01
v 6.250000000000e-01 0.000000000000e+00 2.500000000000e-01
v 6.875000000000e-01 0.000000000000e+00 2.500000000000e-01
v 7.500000000000e-01 0.000000000000e+00 3.750000000000e-01
v 7.500000000000e-01 0.000000000000e+00 4.375000000000e-01
v 6.875000000000e-01 0.000000000000e+00 1.875000000000e-01
v 6.250000000000e-01 0.000000000000e+00 3.750000000000e-01
v 7.500000000000e-01 0.000000000000e+00 1.875000000000e-01
v 8.125000000000e-01 0.000000000000e+00 1.875000000000e-01
v 7.500000000000e-01 0.000000000000e+00 3.125000000000e-01
v 6.875000000000e-01 0.000000000000e+00 3.125000000000e-01
v 5.625000000000e-01 0.000000000000e+00 6.250000000000e-01
v 6.875000000000e-01 0.000000000000e+00 6.250000000000e-01
v 7.500000000000e-01 0.000000000000e+00 6.250000000000e-01
v 6.250000000000e-01 0.000000000000e+00 5.000000000000e-01
v 5.625000000000e-01 0.000000000000e+00 7.500000000000e-01
v 6.250000000000e-01 0.000000000000e+00 7.500000000000e-01
v 6.250000000000e-01 0.000000000000e+00 6.875000000000e-01
v 5.625000000000e-01 0.000000000000e+00 6.875000000000e-01
v 7.500000000000e-01 0.000000000000e+00 5.000000000000e-01
v 6.875000000000e-01 0.000000000000e+00 6.875000000000e-01
v 6.875000000000e-01 0.000000000000e+00 5.000000000000e-01
v 6.250000000000e-01 0.000000000000e+00 5.625000000000e-01
v 7.500000000000e-01 0.000000000000e+00 5.625000000000e-01
v 5.625000000000e-01 0.000000000000e+00 5.625000000000e-01
v 6.875000000000e-01 0.000000000000e+00 5.625000000000e-01
v 6.250000000000e-01 0.000000000000e+00 6.250000000000e-01
v 8.750000000000e-01 0.000000000000e+00 5.625000000000e-01
v 1.000000000000e+00 0.000000000000e+00 5.625000000000e-01
v 8.750000000000e-01 0.000000000000e+00 4.375000000000e-01
v 1.000000000000e+00 0.000000000000e+00 3.750000000000e-01
v 9.375000000000e-01 0.000000000000e+00 3.750000000000e-01
v 1.000000000000e+00 0.000000000000e+00 4.375000000000e-01
v 8.125000000000e-01 0.000000000000e+00 5.000000000000e-01
v 9.375000000000e-01 0.000000000000e+00 5.625000000000e-01
v 8.125000000000e-01 0.000000000000e+00 5.625000000000e-01
v 8.750000000000e-01 0.000000000000e+00 5.000000000000e-01
v 9.375000000000e-01 0.000000000000e+00 5.000000000000e-01
v 8.125000000000e-01 0.000000000000e+00 6.250000000000e-01
v 8.750000000000e-01 0.000000000000e+00 6.250000000000e-01
v 1.000000000000e+00 0.000000000000e+00 5.000000000000e-01
v 9.375000000000e-01 0.000000000000e+00 4.375000000000e-01
v 5.625000000000e-01 0.000000000000e+00 9.375000000000e-01
v 5.000000000000e-01 0.000000000000e+00 9.375000000000e-01
v 6.875000000000e-01 0.000000000000e+00 7.500000000000e-01
v 6.250000000000e-01 0.000000000000e+00 1.000000000000e+00
v 6.875000000000e-01 0.000000000000e+00 1.000000000000e+00
v 5.625000000000e-01 0.000000000000e+00 1.000000000000e+00
v 6.875000000000e-01 0.000000000000e+00 8.750000000000e-01
v 6.250000000000e-01 0.000000000000e+00 8.750000000000e-01
v 6.875000000000e-01 0.000000000000e+00 8.125000000000e-01
v 6.250000000000e-01 0.000000000000e+00 8.125000000000e-01
v 5.625000000000e-01 0.000000000000e+00 8.125000000000e-01
v 5.625000000000e-01 0.000000000000e+00 8.750000000000e-01
v 5.000000000000e-01 0.000000000000e+00 8.750000000000e-01
v 5.000000000000e-01 0.000000000000e+00 1.000000000000e+00
v 6.875000000000e-01 0.000000000000e+00 9.375000000000e-01
v 6.250000000000e-01 0.000000000000e+00 9.375000000000e-01
v 8.125000000000e-01 0.000000000000e+00 9.375000000000e-01
v 8.750000000000e-01 0.000000000000e+00 9.375000000000e-01
v 9.375000000000e-01 0.000000000000e+00 9.375000000000e-01
v 1.000000000000e+00 0.000000000000e+00 9.375000000000e-01
v 7.500000000000e-01 0.000000000000e+00 1.000000000000e+00
v 8.125000000000e-01 0.000000000000e+00 1.000000000000e+00
v 8.750000000000e-01 0.000000000000e+00 1.000000000000e+00
v 9.375000000000e-01 0.000000000000e+00 1.000000000000e+00
v 7.500000000000e-01 0.000000000000e+00 9.375000000000e-01
v 1.000000000000e+00 0.000000000000e+00 1.000000000000e+00
v 9.375000000000e-01 0.000000000000e+00 8.125000000000e-01
v 1.000000000000e+00 0.000000000000e+00 8.125000000000e-01
v 8.125000000000e-01 0.000000000000e+00 8.750000000000e-01
v 8.750000000000e-01 0.000000000000e+00 8.750000000000e-01
v 9.375000000000e-01 0.000000000000e+00 8.750000000000e-01
v 1.000000000000e+00 0.000000000000e+00 8.750000000000e-01
v 9.375000000000e-01 0.000000000000e+00 6.875000000000e-01
v 7.500000000000e-01 0.000000000000e+00 8.750000000000e-01
v 8.750000000000e-01 0.000000000000e+00 8.125000000000e-01
v 9.375000000000e-01 0.000000000000e+00 6.250000000000e-01
v 7.500000000000e-01 0.000000000000e+00 8.125000000000e-01
v 8.125000000000e-01 0.000000000000e+00 8.125000000000e-01
v 7.500000000000e-01 0.000000000000e+00 7.500000000000e-01
v 1.000000000000e+00 0.000000000000e+00 6.875000000000e-01
v 8.750000000000e-01 0.000000000000e+00 7.500000000000e-01
v 9.375000000000e-01 0.000000000000e+00 7.500000000000e-01
v 1.000000000000e+00 0.000000000000e+00 7.500000000000e-01
v 8.125000000000e-01 0.000000000000e+00 7.500000000000e-01
v 8.750000000000e-01 0.000000000000e+00 6.875000000000e-01
v 8.125000000000e-01 0.000000000000e+00 6.875000000000e-01
v 7.500000000000e-01 0.000000000000e+00 6.875000000000e-01
v 1.000000000000e+00 0.000000000000e+00 6.250000000000e-01
v 1.250000000000e-01 0.000000000000e+00 8.750000000000e-01
v -1.250000000000e-01 0.000000000000e+00 1.000000000000e+00
v 1.875000000000e-01 0.000000000000e+00 8.750000000000e-01
v -6.250000000000e-02 0.000000000000e+00 8.750000000000e-01
v -1.250000000000e-01 0.000000000000e+00 9.375000000000e-01
v -6.250000000000e-02 0.000000000000e+00 9.375000000000e-01
v 0.000000000000e+00 0.000000000000e+00 9.375000000000e-01
v 6.250000000000e-02 0.000000000000e+00 9.375000000000e-01
v 1.250000000000e-01 0.000000000000e+00 9.375000000000e-01
v -6.250000000000e-02 0.000000000000e+00 1.000000000000e+00
v 2.500000000000e-01 0.000000000000e+00 8.125000000000e-01
v 0.000000000000e+00 0.000000000000e+00 1.000000000000e+00
v 1.875000000000e-01 0.000000000000e+00 8.125000000000e-01
v 6.250000000000e-02 0.000000000000e+00 1.000000000000e+00
v 0.000000000000e+00 0.000000000000e+00 8.750000000000e-01
v 6.250000000000e-02 0.000000000000e+00 8.750000000000e-01
v 1.250000000000e-01 0.000000000000e+00 6.875000000000e-01
v -6.250000000000e-02 0.000000000000e+00 6.875000000000e-01
v 1.875000000000e-01 0.000000000000e+00 6.875000000000e-01
v -6.250000000000e-02 0.000000000000e+00 8.125000000000e-01
v 1.875000000000e-01 0.000000000000e+00 7.500000000000e-01
v 6.250000000000e-02 0.000000000000e+00 8.125000000000e-01
v -6.250000000000e-02 0.000000000000e+00 7.500000000000e-01
v 6.250000000000e-02 0.000000000000e+00 6.875000000000e-01
v 1.250000000000e-01 0.000000000000e+00 7.500000000000e-01
v 6.250000000000e-02 0.000000000000e+00 7.500000000000e-01
v 1.250000000000e-01 0.000000000000e+00 8.125000000000e-01
v 2.500000000000e-01 0.000000000000e+00 7.500000000000e-01
v 2.500000000000e-01 0.000000000000e+00 6.875000000000e-01
v 0.000000000000e+00 0.000000000000e+00 8.125000000000e-01
v 0.000000000000e+00 0.000000000000e+00 7.500000000000e-01
v 0.000000000000e+00 0.000000000000e+00 6.875000000000e-01
v 4.375000000000e-01 0.000000000000e+00 8.750000000000e-01
v 3.750000000000e-01 0.000000000000e+00 8.750000000000e-01
v 3.125000000000e-01 0.000000000000e+00 8.750000000000e-01
v 4.375000000000e-01 0.000000000000e+00 9.375000000000e-01
v 3.750000000000e-01 0.000000000000e+00 9.375000000000e-01
v 3.125000000000e-01 0.000000000000e+00 9.375000000000e-01
v 1.875000000000e-01 0.000000000000e+00 9.375000000000e-01
v 2.500000000000e-01 0.000000000000e+00 1.000000000000e+00
v 2.500000000000e-01 0.000000000000e+00 8.750000000000e-01
v 2.500000000000e-01 0.000000000000e+00 9.375000000000e-01
v 1.250000000000e-01 0.000000000000e+00 1.000000000000e+00
v 1.875000000000e-01 0.000000000000e+00 1.000000000000e+00
v 3.125000000000e-01 0.000000000000e+00 1.000000000000e+00
v 3.750000000000e-01 0.000000000000e+00 1.000000000000e+00
v 4.375000000000e-01 0.000000000000e+00 1.000000000000e+00
v 3.125000000000e-01 0.000000000000e+00 8.125000000000e-01
v 3.750000000000e-01 0.000000000000e+00 7.500000000000e-01
v 4.375000000000e-01 0.000000000000e+00 7.500000000000e-01
v 5.000000000000e-01 0.000000000000e+00 7.500000000000e-01
v 3.125000000000e-01 0.000000000000e+00 7.500000000000e-01
v 3.750000000000e-01 0.000000000000e+00 6.250000000000e-01
v 5.000000000000e-01 0.000000000000e+00 6.250000000000e-01
v 3.750000000000e-01 0.000000000000e+00 8.125000000000e-01
v 5.000000000000e-01 0.000000000000e+00 6.875000000000e-01
v 4.375000000000e-01 0.000000000000e+00 6.875000000000e-01
v 3.125000000000e-01 0.000000000000e+00 6.875000000000e-01
v 4.375000000000e-01 0.000000000000e+00 6.250000000000e-01
v 3.750000000000e-01 0.000000000000e+00 6.875000000000e-01
v 5.000000000000e-01 0.000000000000e+00 8.125000000000e-01
v 4.375000000000e-01 0.000000000000e+00 8.125000000000e-01
v 1.875000000000e-01 0.000000000000e+00 4.375000000000e-01
v 1.250000000000e-01 0.000000000000e+00 6.250000000000e-01
v 6.250000000000e-02 0.000000000000e+00 6.250000000000e-01
v 0.000000000000e+00 0.000000000000e+00 6.250000000000e-01
v 0.000000000000e+00 0.000000000000e+00 5.625000000000e-01
v 6.250000000000e-02 0.000000000000e+00 5.625000000000e-01
v 1.250000000000e-01 0.000000000000e+00 5.625000000000e-01
v 0.000000000000e+00 0.000000000000e+00 5.000000000000e-01
v 1.875000000000e-01 0.000000000000e+00 6.250000000000e-01
v 6.250000000000e-02 0.000000000000e+00 5.000000000000e-01
v 1.250000000000e-01 0.000000000000e+00 5.000000000000e-01
v 1.875000000000e-01 0.000000000000e+00 5.000000000000e-01
v 1.875000000000e-01 0.000000000000e+00 5.625000000000e-01
v 6.250000000000e-02 0.000000000000e+00 4.375000000000e-01
v 0.000000000000e+00 0.000000000000e+00 4.375000000000e-01
v 1.250000000000e-01 0.000000000000e+00 4.375000000000e-01
v 6.250000000000e-02 0.000000000000e+00 3.125000000000e-01
v 2.500000000000e-01 0.000000000000e+00 1.875000000000e-01
v 1.250000000000e-01 0.000000000000e+00 3.750000000000e-01
v 2.500000000000e-01 0.000000000000e+00 2.500000000000e-01
v 1.250000000000e-01 0.000000000000e+00 2.500000000000e-01
v 0.000000000000e+00 0.000000000000e+00 2.500000000000e-01
v 2.500000000000e-01 0.000000000000e+00 3.125000000000e-01
v 0.000000000000e+00 0.000000000000e+00 3.125000000000e-01
v 1.875000000000e-01 0.000000000000e+00 1.875000000000e-01
v 1.250000000000e-01 0.000000000000e+00 3.125000000000e-01
v 1.875000000000e-01 0.000000000000e+00 3.125000000000e-01
v 1.875000000000e-01 0.000000000000e+00 3.750000000000e-01
v 6.250000000000e-02 0.000000000000e+00 3.750000000000e-01
v 0.000000000000e+00 0.000000000000e+00 3.750000000000e-01
v 6.250000000000e-02 0.000000000000e+00 2.500000000000e-01
v 1.875000000000e-01 0.000000000000e+00 2.500000000000e-01
v 4.375000000000e-01 0.000000000000e+00 6.250000000000e-02
v 5.000000000000e-01 0.000000000000e+00 0.000000000000e+00
v 5.625000000000e-01 0.000000000000e+00 1.250000000000e-01
v 5.000000000000e-01 0.000000000000e+00 1.250000000000e-01
v 4.375000000000e-01 0.000000000000e+00 1.250000000000e-01
v 3.750000000000e-01 0.000000000000e+00 1.250000000000e-01
v 5.000000000000e-01 0.000000000000e+00 6.250000000000e-02
v 5.625000000000e-01 0.000000000000e+00 6.250000000000e-02
v 3.125000000000e-01 0.000000000000e+00 1.875000000000e-01
v 3.750000000000e-01 0.000000000000e+00 1.875000000000e-01
v 4.375000000000e-01 0.000000000000e+00 1.875000000000e-01
v 5.000000000000e-01 0.000000000000e+00 1.875000000000e-01
v 5.625000000000e-01 0.000000000000e+00 1.875000000000e-01
v 3.125000000000e-01 0.000000000000e+00 2.500000000000e-01
v 3.750000000000e-01 0.000000000000e+00 2.500000000000e-01
v 4.375000000000e-01 0.000000000000e+00 2.500000000000e-01
v 2.500000000000e-01 0.000000000000e+00 3.750000000000e-01
v 3.750000000000e-01 0.000000000000e+00 3.125000000000e-01
v 2.500000000000e-01 0.000000000000e+00 4.375000000000e-01
v 3.125000000000e-01 0.000000000000e+00 4.375000000000e-01
v 3.750000000000e-01 0.000000000000e+00 4.375000000000e-01
v 3.750000000000e-01 0.000000000000e+00 3.750000000000e-01
v 3.125000000000e-01 0.000000000000e+00 3.125000000000e-01
v 3.125000000000e-01 0.000000000000e+00 6.250000000000e-01
v 2.500000000000e-01 0.000000000000e+00 6.250000000000e-01
v 3.125000000000e-01 0.000000000000e+00 3.750000000000e-01
v 3.750000000000e-01 0.000000000000e+00 5.625000000000e-01
v 3.125000000000e-01 0.000000000000e+00 5.625000000000e-01
v 2.500000000000e-01 0.000000000000e+00 5.625000000000e-01
v 3.750000000000e-01 0.000000000000e+00 5.000000000000e-01
v 3.125000000000e-01 0.000000000000e+00 5.000000000000e-01
v 2.500000000000e-01 0.000000000000e+00 5.000000000000e-01
v 4.375000000000e-01 0.000000000000e+00 4.375000000000e-01
v 5.000000000000e-01 0.000000000000e+00 4.375000000000e-01
v 5.625000000000e-01 0.000000000000e+00 4.375000000000e-01
v 4.375000000000e-01 0.000000000000e+00 3.125000000000e-01
v 5.625000000000e-01 0.000000000000e+00 2.500000000000e-01
v 5.000000000000e-01 0.000000000000e+00 2.500000000000e-01
v 5.000000000000e-01 0.000000000000e+00 5.625000000000e-01
v 4.375000000000e-01 0.000000000000e+00 5.625000000000e-01
v 5.625000000000e-01 0.000000000000e+00 5.000000000000e-01
v 4.375000000000e-01 0.000000000000e+00 5.000000000000e-01
v 5.625000000000e-01 0.000000000000e+00 3.750000000000e-01
v 5.000000000000e-01 0.000000000000e+00 3.750000000000e-01
v 4.375000000000e-01 0.000000000000e+00 3.750000000000e-01
v 5.000000000000e-01 0.000000000000e+00 3.125000000000e-01
v 5.625000000000e-01 0.000000000000e+00 3.125000000000e-01
v 5.000000000000e-01 0.000000000000e+00 5.000000000000e-01
f 490 495 499
f 499 495 494
f 499 494 498
f 498 494 493
f 498 493 497
f 497 493 492
f 497 492 496
f 496 492 516
f 496 516 520
f 520 516 518
f 520 518 515
f 515 518 519
f 515 519 465
f 465 519 471
f 465 471 464
f 464 471 468
f 464 468 463
f 463 468 469
f 463 469 462
f 462 469 470
f 462 470 277
f 277 470 279
f 277 279 280
f 280 279 274
f 280 274 281
f 281 274 283
f 281 283 270
f 270 283 278
f 270 278 271
f 271 278 269
f 271 269 326
f 326 269 319
f 326 319 320
f 320 319 318
f 320 318 324
f 324 318 317
f 324 317 322
f 322 317 712
f 322 712 718
f 718 712 711
f 718 711 714
f 714 711 719
f 714 719 703
f 703 719 700
f 703 700 701
f 701 700 696
f 701 696 702
f 702 696 698
f 702 698 708
f 708 698 699
f 708 699 620
f 620 699 617
f 620 617 624
f 624 617 616
f 624 616 618
f 618 616 627
f 618 627 628
f 628 627 626
f 628 626 638
f 638 626 640
f 638 640 637
f 637 640 635
f 637 635 636
f 636 635 634
f 495 489 494
f 494 489 500
f 494 500 493
f 493 500 501
f 493 501 492
f 492 501 491
f 492 491 516
f 516 491 505
f 516 505 518
f 518 505 506
f 518 506 519
f 519 506 511
f 519 511 471
f 471 511 458
f 471 458 468
f 468 458 459
f 468 459 469
f 469 459 460
f 469 460 470
f 470 460 461
f 470 461 279
f 279 461 290
f 279 290 274
f 274 290 287
f 274 287 283
f 283 287 272
f 283 272 278
f 278 272 273
f 278 273 269
f 269 273 275
f 269 275 319
f 319 275 325
f 319 325 318
f 318 325 323
f 318 323 317
f 317 323 315
f 317 315 712
f 712 315 723
f 712 723 711
f 711 723 722
f 711 722 719
f 719 722 721
f 719 721 700
f 700 721 707
f 700 707 696
f 696 707 706
f 696 706 698
f 698 706 705
f 698 705 699
f 699 705 704
f 699 704 617
f 617 704 630
f 617 630 616
f 616 630 625
f 616 625 627
f 627 625 629
f 627 629 626
f 626 629 633
f 626 633 640
f 640 633 639
f 640 639 635
f 635 639 632
f 635 632 634
f 634 632 647
f 489 502 500
f 500 502 503
f 500 503 501
f 501 503 504
f 501 504 491
f 491 504 507
f 491 507 505
f 505 507 517
f 505 517 506
f 506 517 513
f 506 513 511
f 511 513 512
f 511 512 458
f 458 512 466
f 458 466 459
f 459 466 467
f 459 467 460
f 460 467 457
f 460 457 461
f 461 457 293
f 461 293 290
f 290 293 294
f 290 294 287
f 287 294 291
f 287 291 272
f 272 291 282
f 272 282 273
f 273 282 276
f 273 276 275
f 275 276 329
f 275 329 325
f 325 329 316
f 325 316 323
f 323 316 321
f 323 321 315
f 315 321 726
f 315 726 723
f 723 726 725
f 723 725 722
f 722 725 724
f 722 724 721
f 721 724 720
f 721 720 707
f 707 720 697
f 707 697 706
f 706 697 710
f 706 710 705
f 705 710 709
f 705 709 704
f 704 709 619
f 704 619 630
f 630 619 623
f 630 623 625
f 625 623 631
f 625 631 629
f 629 631 621
f 629 621 633
f 633 621 646
f 633 646 639
f 639 646 645
f 639 645 632
f 632 645 644
f 632 644 647
f 647 644 643
f 502 524 503
f 503 524 522
f 503 522 504
f 504 522 523
f 504 523 507
f 507 523 514
f 507 514 517
f 517 514 508
f 517 508 513
f 513 508 510
f 513 510 512
f 512 510 472
f 512 472 466
f 466 472 478
f 466 478 467
f 467 478 484
f 467 484 457
f 457 484 476
f 457 476 293
f 293 476 297
f 293 297 294
f 294 297 298
f 294 298 291
f 291 298 299
f 291 299 282
f 282 299 288
f 282 288 276
f 276 288 304
f 276 304 329
f 329 304 327
f 329 327 316
f 316 327 328
f 316 328 321
f 321 328 300
f 321 300 726
f 726 300 717
f 726 717 725
f 725 717 716
f 725 716 724
f 724 716 715
f 724 715 720
f 720 715 713
f 720 713 697
f 697 713 681
f 697 681 710
f 710 681 680
f 710 680 709
f 709 680 622
f 709 622 619
f 619 622 604
f 619 604 623
f 623 604 607
f 623 607 631
f 631 607 609
f 631 609 621
f 621 609 610
f 621 610 646
f 646 610 642
f 646 642 645
f 645 642 641
f 645 641 644
f 644 641 652
f 644 652 643
f 643 652 653
f 524 526 522
f 522 526 529
f 522 529 523
f 523 529 527
f 523 527 514
f 514 527 528
f 514 528 508
f 508 528 509
f 508 509 510
f 510 509 483
f 510 483 472
f 472 483 479
f 472 479 478
f 478 479 475
f 478 475 484
f 484 475 474
f 484 474 476
f 476 474 488
f 476 488 297
f 297 488 289
f 297 289 298
f 298 289 295
f 298 295 299
f 299 295 296
f 299 296 288
f 288 296 309
f 288 309 304
f 304 309 313
f 304 313 327
f 327 313 303
f 327 303 328
f 328 303 305
f 328 305 300
f 300 305 301
f 300 301 717
f 717 301 669
f 717 669 716
f 716 669 667
f 716 667 715
f 715 667 693
f 715 693 713
f 713 693 691
f 713 691 681
f 681 691 689
f 681 689 680
f 680 689 687
f 680 687 622
f 622 687 612
f 622 612 604
f 604 612 602
f 604 602 607
f 607 602 603
f 607 603 609
f 609 603 608
f 609 608 610
f 610 608 611
f 610 611 642
f 642 611 654
f 642 654 641
f 641 654 651
f 641 651 652
f 652 651 656
f 652 656 653
f 653 656 655
f 526 530 529
f 529 530 531
f 529 531 527
f 527 531 532
f 527 532 528
f 528 532 533
f 528 533 509
f 509 533 487
f 509 487 483
f 483 487 486
f 483 486 479
f 479 486 485
f 479 485 475
f 475 485 480
f 475 480 474
f 474 480 477
f 474 477 488
f 488 477 292
f 488 292 289
f 289 292 284
f 289 284 295
f 295 284 285
f 295 285 296
f 296 285 286
f 296 286 309
f 309 286 312
f 309 312 313
f 313 312 310
f 313 310 303
f 303 310 311
f 303 311 305
f 305 311 302
f 305 302 301
f 301 302 674
f 301 674 669
f 669 674 673
f 669 673 667
f 667 673 672
f 667 672 693
f 693 672 692
f 693 692 691
f 691 692 685
f 691 685 689
f 689 685 683
f 689 683 687
f 687 683 694
f 687 694 612
f 612 694 605
f 612 605 602
f 602 605 600
f 602 600 603
f 603 600 615
f 603 615 608
f 608 615 613
f 608 613 611
f 611 613 650
f 611 650 654
f 654 650 648
f 654 648 651
f 651 648 662
f 651 662 656
f 656 662 663
f 656 663 655
f 655 663 660
f 530 521 531
f 531 521 536
f 531 536 532
f 532 536 535
f 532 535 533
f 533 535 534
f 533 534 487
f 487 534 473
f 487 473 486
f 486 473 481
f 486 481 485
f 485 481 482
f 485 482 480
f 480 482 415
f 480 415 477
f 477 415 410
f 477 410 292
f 292 410 350
f 292 350 284
f 284 350 351
f 284 351 285
f 285 351 352
f 285 352 286
f 286 352 353
f 286 353 312
f 312 353 314
f 312 314 310
f 310 314 308
f 310 308 311
f 311 308 307
f 311 307 302
f 302 307 306
f 302 306 674
f 674 306 676
f 674 676 673
f 673 676 675
f 673 675 672
f 672 675 671
f 672 671 692
f 692 671 670
f 692 670 685
f 685 670 686
f 685 686 683
f 683 686 684
f 683 684 694
f 694 684 682
f 694 682 605
f 605 682 614
f 605 614 600
f 600 614 601
f 600 601 615
f 615 601 606
f 615 606 613
f 613 606 661
f 613 661 650
f 650 661 649
f 650 649 648
f 648 649 659
f 648 659 662
f 662 659 658
f 662 658 663
f 663 658 657
f 663 657 660
f 660 657 599
f 521 525 536
f 536 525 440
f 536 440 535
f 535 440 430
f 535 430 534
f 534 430 434
f 534 434 473
f 473 434 435
f 473 435 481
f 481 435 436
f 481 436 482
f 482 436 419
f 482 419 415
f 415 419 417
f 415 417 410
f 410 417 409
f 410 409 350
f 350 409 354
f 350 354 351
f 351 354 355
f 351 355 352
f 352 355 356
f 352 356 353
f 353 356 357
f 353 357 314
f 314 357 363
f 314 363 308
f 308 363 362
f 308 362 307
f 307 362 375
f 307 375 306
f 306 375 364
f 306 364 676
f 676 364 664
f 676 664 675
f 675 664 677
f 675 677 671
f 671 677 668
f 671 668 670
f 670 668 678
f 670 678 686
f 686 678 688
f 686 688 684
f 684 688 690
f 684 690 682
f 682 690 695
f 682 695 614
f 614 695 566
f 614 566 601
f 601 566 567
f 601 567 606
f 606 567 568
f 606 568 661
f 661 568 553
f 661 553 649
f 649 553 554
f 649 554 659
f 659 554 588
f 659 588 658
f 658 588 591
f 658 591 657
f 657 591 594
f 657 594 599
f 599 594 595
f 525 431 440
f 440 431 432
f 440 432 430
f 430 432 433
f 430 433 434
f 434 433 437
f 434 437 435
f 435 437 438
f 435 438 436
f 436 438 439
f 436 439 419
f 419 439 423
f 419 423 417
f 417 423 424
f 417 424 409
f 409 424 358
f 409 358 354
f 354 358 359
f 354 359 355
f 355 359 360
f 355 360 356
f 356 360 361
f 356 361 357
f 357 361 365
f 357 365 363
f 363 365 366
f 363 366 362
f 362 366 367
f 362 367 375
f 375 367 368
f 375 368 364
f 364 368 370
f 364 370 664
f 664 370 665
f 664 665 677
f 677 665 666
f 677 666 668
f 668 666 679
f 668 679 678
f 678 679 804
f 678 804 688
f 688 804 799
f 688 799 690
f 690 799 798
f 690 798 695
f 695 798 797
f 695 797 566
f 566 797 555
f 566 555 567
f 567 555 556
f 567 556 568
f 568 556 557
f 568 557 553
f 553 557 558
f 553 558 554
f 554 558 559
f 554 559 588
f 588 559 586
f 588 586 591
f 591 586 584
f 591 584 594
f 594 584 585
f 594 585 595
f 595 585 587
f 431 429 432
f 432 429 428
f 432 428 433
f 433 428 427
f 433 427 437
f 437 427 426
f 437 426 438
f 438 426 425
f 438 425 439
f 439 425 412
f 439 412 423
f 423 412 411
f 423 411 424
f 424 411 420
f 424 420 358
f 358 420 346
f 358 346 359
f 359 346 347
f 359 347 360
f 360 347 348
f 360 348 361
f 361 348 372
f 361 372 365
f 365 372 377
f 365 377 366
f 366 377 376
f 366 376 367
f 367 376 374
f 367 374 368
f 368 374 373
f 368 373 370
f 370 373 765
f 370 765 665
f 665 765 773
f 665 773 666
f 666 773 766
f 666 766 679
f 679 766 791
f 679 791 804
f 804 791 800
f 804 800 799
f 799 800 801
f 799 801 798
f 798 801 802
f 798 802 797
f 797 802 803
f 797 803 555
f 555 803 560
f 555 560 556
f 556 560 561
f 556 561 557
f 557 561 562
f 557 562 558
f 558 562 563
f 558 563 559
f 559 563 596
f 559 596 586
f 586 596 589
f 586 589 584
f 584 589 597
f 584 597 585
f 585 597 598
f 585 598 587
f 587 598 569
f 429 442 428
f 428 442 443
f 428 443 427
f 427 443 444
f 427 444 426
f 426 444 445
f 426 445 425
f 425 445 446
f 425 446 412
f 412 446 422
f 412 422 411
f 411 422 421
f 411 421 420
f 420 421 418
f 420 418 346
f 346 418 349
f 346 349 347
f 347 349 331
f 347 331 348
f 348 331 337
f 348 337 372
f 372 337 369
f 372 369 377
f 377 369 371
f 377 371 376
f 376 371 385
f 376 385 374
f 374 385 384
f 374 384 373
f 373 384 383
f 373 383 765
f 765 383 771
f 765 771 773
f 773 771 770
f 773 770 766
f 766 770 767
f 766 767 791
f 791 767 793
f 791 793 800
f 800 793 792
f 800 792 801
f 801 792 794
f 801 794 802
f 802 794 795
f 802 795 803
f 803 795 796
f 803 796 560
f 560 796 564
f 560 564 561
f 561 564 565
f 561 565 562
f 562 565 547
f 562 547 563
f 563 547 548
f 563 548 596
f 596 548 590
f 596 590 589
f 589 590 592
f 589 592 597
f 597 592 593
f 597 593 598
f 598 593 583
f 598 583 569
f 569 583 582
f 442 451 443
f 443 451 441
f 443 441 444
f 444 441 454
f 444 454 445
f 445 454 447
f 445 447 446
f 446 447 400
f 446 400 422
f 422 400 416
f 422 416 421
f 421 416 414
f 421 414 418
f 418 414 413
f 418 413 349
f 349 413 342
f 349 342 331
f 331 342 343
f 331 343 337
f 337 343 335
f 337 335 369
f 369 335 330
f 369 330 371
f 371 330 386
f 371 386 385
f 385 386 382
f 385 382 384
f 384 382 381
f 384 381 383
f 383 381 763
f 383 763 771
f 771 763 769
f 771 769 770
f 770 769 772
f 770 772 767
f 767 772 760
f 767 760 793
f 793 760 788
f 793 788 792
f 792 788 789
f 792 789 794
f 794 789 805
f 794 805 795
f 795 805 806
f 795 806 796
f 796 806 741
f 796 741 564
f 564 741 552
f 564 552 565
f 565 552 541
f 565 541 547
f 547 541 542
f 547 542 548
f 548 542 546
f 548 546 590
f 590 546 580
f 590 580 592
f 592 580 581
f 592 581 593
f 593 581 575
f 593 575 583
f 583 575 576
f 583 576 582
f 582 576 577
f 451 450 441
f 441 450 449
f 441 449 454
f 454 449 448
f 454 448 447
f 447 448 402
f 447 402 400
f 400 402 395
f 400 395 416
f 416 395 407
f 416 407 414
f 414 407 401
f 414 401 413
f 413 401 336
f 413 336 342
f 342 336 334
f 342 334 343
f 343 334 339
f 343 339 335
f 335 339 338
f 335 338 330
f 330 338 391
f 330 391 386
f 386 391 387
f 386 387 382
f 382 387 379
f 382 379 381
f 381 379 393
f 381 393 763
f 763 393 761
f 763 761 769
f 769 761 768
f 769 768 772
f 772 768 762
f 772 762 760
f 760 762 790
f 760 790 788
f 788 790 775
f 788 775 789
f 789 775 776
f 789 776 805
f 805 776 777
f 805 777 806
f 806 777 733
f 806 733 741
f 741 733 732
f 741 732 552
f 552 732 543
f 552 543 541
f 541 543 544
f 541 544 542
f 542 544 545
f 542 545 546
f 546 545 579
f 546 579 580
f 580 579 578
f 580 578 581
f 581 578 572
f 581 572 575
f 575 572 571
f 575 571 576
f 576 571 834
f 576 834 577
f 577 834 825
f 450 452 449
f 449 452 453
f 449 453 448
f 448 453 394
f 448 394 402
f 402 394 396
f 402 396 395
f 395 396 397
f 395 397 407
f 407 397 398
f 407 398 401
f 401 398 399
f 401 399 336
f 336 399 332
f 336 332 334
f 334 332 333
f 334 333 339
f 339 333 344
f 339 344 338
f 338 344 378
f 338 378 391
f 391 378 388
f 391 388 387
f 387 388 389
f 387 389 379
f 379 389 390
f 379 390 393
f 393 390 224
f 393 224 761
f 761 224 774
f 761 774 768
f 768 774 759
f 768 759 762
f 762 759 778
f 762 778 790
f 790 778 779
f 790 779 775
f 775 779 780
f 775 780 776
f 776 780 781
f 776 781 777
f 777 781 739
f 777 739 733
f 733 739 736
f 733 736 732
f 732 736 728
f 732 728 543
f 543 728 537
f 543 537 544
f 544 537 551
f 544 551 545
f 545 551 550
f 545 550 579
f 579 550 573
f 579 573 578
f 578 573 570
f 578 570 572
f 572 570 574
f 572 574 571
f 571 574 833
f 571 833 834
f 834 833 828
f 834 828 825
f 825 828 832
f 452 455 453
f 453 455 456
f 453 456 394
f 394 456 403
f 394 403 396
f 396 403 404
f 396 404 397
f 397 404 405
f 397 405 398
f 398 405 406
f 398 406 399
f 399 406 408
f 399 408 332
f 332 408 340
f 332 340 333
f 333 340 341
f 333 341 344
f 344 341 345
f 344 345 378
f 378 345 380
f 378 380 388
f 388 380 392
f 388 392 389
f 389 392 223
f 389 223 390
f 390 223 234
f 390 234 224
f 224 234 233
f 224 233 774
f 774 233 764
f 774 764 759
f 759 764 782
f 759 782 778
f 778 782 783
f 778 783 779
f 779 783 784
f 779 784 780
f 780 784 758
f 780 758 781
f 781 758 756
f 781 756 739
f 739 756 735
f 739 735 736
f 736 735 734
f 736 734 728
f 728 734 742
f 728 742 537
f 537 742 538
f 537 538 551
f 551 538 539
f 551 539 550
f 550 539 540
f 550 540 573
f 573 540 816
f 573 816 570
f 570 816 815
f 570 815 574
f 574 815 814
f 574 814 833
f 833 814 824
f 833 824 828
f 828 824 835
f 828 835 832
f 832 835 827
f 455 131 456
f 456 131 140
f 456 140 403
f 403 140 141
f 403 141 404
f 404 141 136
f 404 136 405
f 405 136 135
f 405 135 406
f 406 135 134
f 406 134 408
f 408 134 196
f 408 196 340
f 340 196 195
f 340 195 341
f 341 195 194
f 341 194 345
f 345 194 203
f 345 203 380
f 380 203 204
f 380 204 392
f 392 204 231
f 392 231 223
f 223 231 232
f 223 232 234
f 234 232 230
f 234 230 233
f 233 230 221
f 233 221 764
f 764 221 241
f 764 241 782
f 782 241 785
f 782 785 783
f 783 785 786
f 783 786 784
f 784 786 744
f 784 744 758
f 758 744 743
f 758 743 756
f 756 743 757
f 756 757 735
f 735 757 731
f 735 731 734
f 734 731 730
f 734 730 742
f 742 730 729
f 742 729 538
f 538 729 1043
f 538 1043 539
f 539 1043 549
f 539 549 540
f 540 549 818
f 540 818 816
f 816 818 809
f 816 809 815
f 815 809 810
f 815 810 814
f 814 810 817
f 814 817 824
f 824 817 836
f 824 836 835
f 835 836 822
f 835 822 827
f 827 822 823
f 131 132 140
f 140 132 133
f 140 133 141
f 141 133 139
f 141 139 136
f 136 139 137
f 136 137 135
f 135 137 127
f 135 127 134
f 134 127 128
f 134 128 196
f 196 128 190
f 196 190 195
f 195 190 191
f 195 191 194
f 194 191 192
f 194 192 203
f 203 192 193
f 203 193 204
f 204 193 197
f 204 197 231
f 231 197 236
f 231 236 232
f 232 236 229
f 232 229 230
f 230 229 222
f 230 222 221
f 221 222 247
f 221 247 241
f 241 247 239
f 241 239 785
f 785 239 787
f 785 787 786
f 786 787 755
f 786 755 744
f 744 755 751
f 744 751 743
f 743 751 750
f 743 750 757
f 757 750 749
f 757 749 731
f 731 749 738
f 731 738 730
f 730 738 727
f 730 727 729
f 729 727 1042
f 729 1042 1043
f 1043 1042 1048
f 1043 1048 549
f 549 1048 1049
f 549 1049 818
f 818 1049 808
f 818 808 809
f 809 808 811
f 809 811 810
f 810 811 813
f 810 813 817
f 817 813 812
f 817 812 836
f 836 812 829
f 836 829 822
f 822 829 830
f 822 830 823
f 823 830 831
f 132 153 133
f 133 153 154
f 133 154 139
f 139 154 142
f 139 142 137
f 137 142 138
f 137 138 127
f 127 138 130
f 127 130 128
f 128 130 129
f 128 129 190
f 190 129 202
f 190 202 191
f 191 202 201
f 191 201 192
f 192 201 200
f 192 200 193
f 193 200 199
f 193 199 197
f 197 199 235
f 197 235 236
f 236 235 225
f 236 225 229
f 229 225 226
f 229 226 222
f 222 226 238
f 222 238 247
f 247 238 251
f 247 251 239
f 239 251 250
f 239 250 787
f 787 250 752
f 787 752 755
f 755 752 748
f 755 748 751
f 751 748 753
f 751 753 750
f 750 753 754
f 750 754 749
f 749 754 737
f 749 737 738
f 738 737 740
f 738 740 727
f 727 740 1047
f 727 1047 1042
f 1042 1047 1046
f 1042 1046 1048
f 1048 1046 1045
f 1048 1045 1049
f 1049 1045 1044
f 1049 1044 808
f 808 1044 807
f 808 807 811
f 811 807 819
f 811 819 813
f 813 819 820
f 813 820 812
f 812 820 821
f 812 821 829
f 829 821 826
f 829 826 830
f 830 826 849
f 830 849 831
f 831 849 838
f 153 145 154
f 154 145 144
f 154 144 142
f 142 144 148
f 142 148 138
f 138 148 151
f 138 151 130
f 130 151 161
f 130 161 129
f 129 161 159
f 129 159 202
f 202 159 198
f 202 198 201
f 201 198 206
f 201 206 200
f 200 206 213
f 200 213 199
f 199 213 209
f 199 209 235
f 235 209 228
f 235 228 225
f 225 228 227
f 225 227 226
f 226 227 260
f 226 260 238
f 238 260 242
f 238 242 251
f 251 242 244
f 251 244 250
f 250 244 246
f 250 246 752
f 752 246 747
f 752 747 748
f 748 747 746
f 748 746 753
f 753 746 745
f 753 745 754
f 754 745 1034
f 754 1034 737
f 737 1034 1027
f 737 1027 740
f 740 1027 1050
f 740 1050 1047
f 1047 1050 1051
f 1047 1051 1046
f 1046 1051 1052
f 1046 1052 1045
f 1045 1052 1053
f 1045 1053 1044
f 1044 1053 1054
f 1044 1054 807
f 807 1054 855
f 807 855 819
f 819 855 863
f 819 863 820
f 820 863 865
f 820 865 821
f 821 865 866
f 821 866 826
f 826 866 841
f 826 841 849
f 849 841 842
f 849 842 838
f 838 842 837
f 145 155 144
f 144 155 156
f 144 156 148
f 148 156 157
f 148 157 151
f 151 157 172
f 151 172 161
f 161 172 173
f 161 173 159
f 159 173 160
f 159 160 198
f 198 160 205
f 198 205 206
f 206 205 219
f 206 219 213
f 213 219 218
f 213 218 209
f 209 218 215
f 209 215 228
f 228 215 261
f 228 261 227
f 227 261 262
f 227 262 260
f 260 262 263
f 260 263 242
f 242 263 259
f 242 259 244
f 244 259 237
f 244 237 246
f 246 237 240
f 246 240 747
f 747 240 1031
f 747 1031 746
f 746 1031 1040
f 746 1040 745
f 745 1040 1030
f 745 1030 1034
f 1034 1030 1041
f 1034 1041 1027
f 1027 1041 1029
f 1027 1029 1050
f 1050 1029 1055
f 1050 1055 1051
f 1051 1055 1056
f 1051 1056 1052
f 1052 1056 1057
f 1052 1057 1053
f 1053 1057 1079
f 1053 1079 1054
f 1054 1079 1078
f 1054 1078 855
f 855 1078 859
f 855 859 863
f 863 859 860
f 863 860 865
f 865 860 857
f 865 857 866
f 866 857 846
f 866 846 841
f 841 846 840
f 841 840 842
f 842 840 839
f 842 839 837
f 837 839 847
f 155 149 156
f 156 149 150
f 156 150 157
f 157 150 146
f 157 146 172
f 172 146 158
f 172 158 173
f 173 158 162
f 173 162 160
f 160 162 163
f 160 163 205
f 205 163 208
f 205 208 219
f 219 208 211
f 219 211 218
f 218 211 212
f 218 212 215
f 215 212 254
f 215 254 261
f 261 254 253
f 261 253 262
f 262 253 268
f 262 268 263
f 263 268 267
f 263 267 259
f 259 267 266
f 259 266 237
f 237 266 243
f 237 243 240
f 240 243 248
f 240 248 1031
f 1031 248 1033
f 1031 1033 1040
f 1040 1033 1026
f 1040 1026 1030
f 1030 1026 1035
f 1030 1035 1041
f 1041 1035 1036
f 1041 1036 1029
f 1029 1036 1032
f 1029 1032 1055
f 1055 1032 1064
f 1055 1064 1056
f 1056 1064 1059
f 1056 1059 1057
f 1057 1059 1077
f 1057 1077 1079
f 1079 1077 1087
f 1079 1087 1078
f 1078 1087 1088
f 1078 1088 859
f 859 1088 858
f 859 858 860
f 860 858 868
f 860 868 857
f 857 868 867
f 857 867 846
f 846 867 852
f 846 852 840
f 840 852 851
f 840 851 839
f 839 851 848
f 839 848 847
f 847 848 845
f 149 147 150
f 150 147 143
f 150 143 146
f 146 143 169
f 146 169 158
f 158 169 166
f 158 166 162
f 162 166 167
f 162 167 163
f 163 167 168
f 163 168 208
f 208 168 214
f 208 214 211
f 211 214 210
f 211 210 212
f 212 210 207
f 212 207 254
f 254 207 258
f 254 258 253
f 253 258 257
f 253 257 268
f 268 257 256
f 268 256 267
f 267 256 255
f 267 255 266
f 266 255 245
f 266 245 243
f 243 245 252
f 243 252 248
f 248 252 249
f 248 249 1033
f 1033 249 1039
f 1033 1039 1026
f 1026 1039 1038
f 1026 1038 1035
f 1035 1038 1028
f 1035 1028 1036
f 1036 1028 1037
f 1036 1037 1032
f 1032 1037 1058
f 1032 1058 1064
f 1064 1058 1067
f 1064 1067 1059
f 1059 1067 1063
f 1059 1063 1077
f 1077 1063 1086
f 1077 1086 1087
f 1087 1086 1085
f 1087 1085 1088
f 1088 1085 1084
f 1088 1084 858
f 858 1084 864
f 858 864 868
f 868 864 854
f 868 854 867
f 867 854 861
f 867 861 852
f 852 861 850
f 852 850 851
f 851 850 844
f 851 844 848
f 848 844 889
f 848 889 845
f 845 889 888
f 147 152 143
f 143 152 176
f 143 176 169
f 169 176 189
f 169 189 166
f 166 189 170
f 166 170 167
f 167 170 164
f 167 164 168
f 168 164 171
f 168 171 214
f 214 171 217
f 214 217 210
f 210 217 220
f 210 220 207
f 207 220 216
f 207 216 258
f 258 216 264
f 258 264 257
f 257 264 265
f 257 265 256
f 256 265 58
f 256 58 255
f 255 58 60
f 255 60 245
f 245 60 38
f 245 38 252
f 252 38 42
f 252 42 249
f 249 42 47
f 249 47 1039
f 1039 47 1024
f 1039 1024 1038
f 1038 1024 1023
f 1038 1023 1028
f 1028 1023 1025
f 1028 1025 1037
f 1037 1025 1010
f 1037 1010 1058
f 1058 1010 1060
f 1058 1060 1067
f 1067 1060 1061
f 1067 1061 1063
f 1063 1061 1062
f 1063 1062 1086
f 1086 1062 1074
f 1086 1074 1085
f 1085 1074 1075
f 1085 1075 1084
f 1084 1075 1076
f 1084 1076 864
f 864 1076 856
f 864 856 854
f 854 856 853
f 854 853 861
f 861 853 862
f 861 862 850
f 850 862 843
f 850 843 844
f 844 843 887
f 844 887 889
f 889 887 899
f 889 899 888
f 888 899 890
f 152 179 176
f 176 179 175
f 176 175 189
f 189 175 188
f 189 188 170
f 170 188 187
f 170 187 164
f 164 187 165
f 164 165 171
f 171 165 92
f 171 92 217
f 217 92 68
f 217 68 220
f 220 68 65
f 220 65 216
f 216 65 64
f 216 64 264
f 264 64 78
f 264 78 265
f 265 78 56
f 265 56 58
f 58 56 52
f 58 52 60
f 60 52 51
f 60 51 38
f 38 51 46
f 38 46 42
f 42 46 32
f 42 32 47
f 47 32 37
f 47 37 1024
f 1024 37 1017
f 1024 1017 1023
f 1023 1017 1019
f 1023 1019 1025
f 1025 1019 1020
f 1025 1020 1010
f 1010 1020 1021
f 1010 1021 1060
f 1060 1021 1073
f 1060 1073 1061
f 1061 1073 1072
f 1061 1072 1062
f 1062 1072 1071
f 1062 1071 1074
f 1074 1071 1083
f 1074 1083 1075
f 1075 1083 1089
f 1075 1089 1076
f 1076 1089 1082
f 1076 1082 856
f 856 1082 872
f 856 872 853
f 853 872 879
f 853 879 862
f 862 879 877
f 862 877 843
f 843 877 891
f 843 891 887
f 887 891 894
f 887 894 899
f 899 894 895
f 899 895 890
f 890 895 898
f 179 186 175
f 175 186 177
f 175 177 188
f 188 177 181
f 188 181 187
f 187 181 182
f 187 182 165
f 165 182 79
f 165 79 92
f 92 79 93
f 92 93 68
f 68 93 77
f 68 77 65
f 65 77 76
f 65 76 64
f 64 76 72
f 64 72 78
f 78 72 71
f 78 71 56
f 56 71 48
f 56 48 52
f 52 48 49
f 52 49 51
f 51 49 50
f 51 50 46
f 46 50 45
f 46 45 32
f 32 45 44
f 32 44 37
f 37 44 43
f 37 43 1017
f 1017 43 1014
f 1017 1014 1019
f 1019 1014 1015
f 1019 1015 1020
f 1020 1015 1016
f 1020 1016 1021
f 1021 1016 1022
f 1021 1022 1073
f 1073 1022 1070
f 1073 1070 1072
f 1072 1070 1069
f 1072 1069 1071
f 1071 1069 1068
f 1071 1068 1083
f 1083 1068 1081
f 1083 1081 1089
f 1089 1081 1080
f 1089 1080 1082
f 1082 1080 882
f 1082 882 872
f 872 882 880
f 872 880 879
f 879 880 883
f 879 883 877
f 877 883 881
f 877 881 891
f 891 881 893
f 891 893 894
f 894 893 885
f 894 885 895
f 895 885 892
f 895 892 898
f 898 892 886
f 186 183 177
f 177 183 174
f 177 174 181
f 181 174 178
f 181 178 182
f 182 178 90
f 182 90 79
f 79 90 87
f 79 87 93
f 93 87 75
f 93 75 77
f 77 75 74
f 77 74 76
f 76 74 70
f 76 70 72
f 72 70 73
f 72 73 71
f 71 73 53
f 71 53 48
f 48 53 63
f 48 63 49
f 49 63 59
f 49 59 50
f 50 59 36
f 50 36 45
f 45 36 35
f 45 35 44
f 44 35 34
f 44 34 43
f 43 34 33
f 43 33 1014
f 1014 33 1013
f 1014 1013 1015
f 1015 1013 1012
f 1015 1012 1016
f 1016 1012 1011
f 1016 1011 1022
f 1022 1011 1018
f 1022 1018 1070
f 1070 1018 1066
f 1070 1066 1069
f 1069 1066 1065
f 1069 1065 1068
f 1068 1065 1000
f 1068 1000 1081
f 1081 1000 1006
f 1081 1006 1080
f 1080 1006 1001
f 1080 1001 882
f 882 1001 869
f 882 869 880
f 880 869 884
f 880 884 883
f 883 884 870
f 883 870 881
f 881 870 871
f 881 871 893
f 893 871 896
f 893 896 885
f 885 896 897
f 885 897 892
f 892 897 935
f 892 935 886
f 886 935 947
f 183 184 174
f 174 184 180
f 174 180 178
f 178 180 83
f 178 83 90
f 90 83 82
f 90 82 87
f 87 82 81
f 87 81 75
f 75 81 67
f 75 67 74
f 74 67 66
f 74 66 70
f 70 66 95
f 70 95 73
f 73 95 104
f 73 104 53
f 53 104 55
f 53 55 63
f 63 55 57
f 63 57 59
f 59 57 62
f 59 62 36
f 36 62 39
f 36 39 35
f 35 39 40
f 35 40 34
f 34 40 41
f 34 41 33
f 33 41 965
f 33 965 1013
f 1013 965 979
f 1013 979 1012
f 1012 979 971
f 1012 971 1011
f 1011 971 964
f 1011 964 1018
f 1018 964 966
f 1018 966 1066
f 1066 966 976
f 1066 976 1065
f 1065 976 1005
f 1065 1005 1000
f 1000 1005 1007
f 1000 1007 1006
f 1006 1007 1004
f 1006 1004 1001
f 1001 1004 1003
f 1001 1003 869
f 869 1003 876
f 869 876 884
f 884 876 875
f 884 875 870
f 870 875 878
f 870 878 871
f 871 878 946
f 871 946 896
f 896 946 945
f 896 945 897
f 897 945 944
f 897 944 935
f 935 944 932
f 935 932 947
f 947 932 939
f 184 185 180
f 180 185 80
f 180 80 83
f 83 80 84
f 83 84 82
f 82 84 85
f 82 85 81
f 81 85 94
f 81 94 67
f 67 94 69
f 67 69 66
f 66 69 96
f 66 96 95
f 95 96 97
f 95 97 104
f 104 97 98
f 104 98 55
f 55 98 54
f 55 54 57
f 57 54 61
f 57 61 62
f 62 61 10
f 62 10 39
f 39 10 18
f 39 18 40
f 40 18 26
f 40 26 41
f 41 26 25
f 41 25 965
f 965 25 970
f 965 970 979
f 979 970 978
f 979 978 971
f 971 978 973
f 971 973 964
f 964 973 972
f 964 972 966
f 966 972 968
f 966 968 976
f 976 968 975
f 976 975 1005
f 1005 975 999
f 1005 999 1007
f 1007 999 996
f 1007 996 1004
f 1004 996 997
f 1004 997 1003
f 1003 997 998
f 1003 998 876
f 876 998 873
f 876 873 875
f 875 873 874
f 875 874 878
f 878 874 902
f 878 902 946
f 946 902 938
f 946 938 945
f 945 938 943
f 945 943 944
f 944 943 940
f 944 940 932
f 932 940 941
f 932 941 939
f 939 941 942
f 185 86 80
f 80 86 89
f 80 89 84
f 84 89 88
f 84 88 85
f 85 88 120
f 85 120 94
f 94 120 112
f 94 112 69
f 69 112 103
f 69 103 96
f 96 103 105
f 96 105 97
f 97 105 100
f 97 100 98
f 98 100 99
f 98 99 54
f 54 99 7
f 54 7 61
f 61 7 8
f 61 8 10
f 10 8 11
f 10 11 18
f 18 11 31
f 18 31 26
f 26 31 19
f 26 19 25
f 25 19 24
f 25 24 970
f 970 24 967
f 970 967 978
f 978 967 977
f 978 977 973
f 973 977 969
f 973 969 972
f 972 969 974
f 972 974 968
f 968 974 960
f 968 960 975
f 975 960 958
f 975 958 999
f 999 958 995
f 999 995 996
f 996 995 1002
f 996 1002 997
f 997 1002 1009
f 997 1009 998
f 998 1009 1008
f 998 1008 873
f 873 1008 910
f 873 910 874
f 874 910 909
f 874 909 902
f 902 909 908
f 902 908 938
f 938 908 936
f 938 936 943
f 943 936 937
f 943 937 940
f 940 937 934
f 940 934 941
f 941 934 926
f 941 926 942
f 942 926 927
f 86 91 89
f 89 91 123
f 89 123 88
f 88 123 122
f 88 122 120
f 120 122 121
f 120 121 112
f 112 121 111
f 112 111 103
f 103 111 108
f 103 108 105
f 105 108 107
f 105 107 100
f 100 107 106
f 100 106 99
f 99 106 9
f 99 9 7
f 7 9 5
f 7 5 8
f 8 5 13
f 8 13 11
f 11 13 23
f 11 23 31
f 31 23 22
f 31 22 19
f 19 22 21
f 19 21 24
f 24 21 20
f 24 20 967
f 967 20 951
f 967 951 977
f 977 951 962
f 977 962 969
f 969 962 963
f 969 963 974
f 974 963 948
f 974 948 960
f 960 948 950
f 960 950 958
f 958 950 988
f 958 988 995
f 995 988 982
f 995 982 1002
f 1002 982 981
f 1002 981 1009
f 1009 981 980
f 1009 980 1008
f 1008 980 912
f 1008 912 910
f 910 912 911
f 910 911 909
f 909 911 907
f 909 907 908
f 908 907 906
f 908 906 936
f 936 906 933
f 936 933 937
f 937 933 928
f 937 928 934
f 934 928 929
f 934 929 926
f 926 929 930
f 926 930 927
f 927 930 931
f 91 117 123
f 123 117 116
f 123 116 122
f 122 116 115
f 122 115 121
f 121 115 114
f 121 114 111
f 111 114 113
f 111 113 108
f 108 113 101
f 108 101 107
f 107 101 102
f 107 102 106
f 106 102 4
f 106 4 9
f 9 4 3
f 9 3 5
f 5 3 2
f 5 2 13
f 13 2 6
f 13 6 23
f 23 6 30
f 23 30 22
f 22 30 29
f 22 29 21
f 21 29 28
f 21 28 20
f 20 28 952
f 20 952 951
f 951 952 953
f 951 953 962
f 962 953 954
f 962 954 963
f 963 954 955
f 963 955 948
f 948 955 956
f 948 956 950
f 950 956 986
f 950 986 988
f 988 986 989
f 988 989 982
f 982 989 985
f 982 985 981
f 981 985 984
f 981 984 980
f 980 984 983
f 980 983 912
f 912 983 901
f 912 901 911
f 911 901 900
f 911 900 907
f 907 900 915
f 907 915 906
f 906 915 914
f 906 914 933
f 933 914 924
f 933 924 928
f 928 924 916
f 928 916 929
f 929 916 917
f 929 917 930
f 930 917 918
f 930 918 931
f 931 918 919
f 117 124 116
f 116 124 119
f 116 119 115
f 115 119 126
f 115 126 114
f 114 126 118
f 114 118 113
f 113 118 125
f 113 125 101
f 101 125 109
f 101 109 102
f 102 109 110
f 102 110 4
f 4 110 15
f 4 15 3
f 3 15 14
f 3 14 2
f 2 14 1
f 2 1 6
f 6 1 12
f 6 12 30
f 30 12 16
f 30 16 29
f 29 16 17
f 29 17 28
f 28 17 27
f 28 27 952
f 952 27 949
f 952 949 953
f 953 949 957
f 953 957 954
f 954 957 959
f 954 959 955
f 955 959 961
f 955 961 956
f 956 961 990
f 956 990 986
f 986 990 991
f 986 991 989
f 989 991 987
f 989 987 985
f 985 987 992
f 985 992 984
f 984 992 993
f 984 993 983
f 983 993 994
f 983 994 901
f 901 994 913
f 901 913 900
f 900 913 905
f 900 905 915
f 915 905 903
f 915 903 914
f 914 903 904
f 914 904 924
f 924 904 920
f 924 920 916
f 916 920 921
f 916 921 917
f 917 921 922
f 917 922 918
f 918 922 923
f 918 923 919
f 919 923 925
